<svg version="1.2" xmlns="http://www.w3.org/2000/svg" viewBox="0 0 1024 1024" width="1024" height="1024">
	<title>niko1_Minimalist_tiny_rental_house_logo_featuring_a_small_mode_27f1e6ec-03c7-4d14-8d7e-e7bb1f8ce49d</title>
	<style>
		.s0 { fill: none;stroke: #828282;stroke-width: 2 } 
		.s1 { fill: none;stroke: #303030;stroke-width: 2 } 
		.s2 { fill: none;stroke: #adadad;stroke-width: 2 } 
		.s3 { fill: #050505 } 
		.s4 { fill: #ffffff } 
		.s5 { fill: #5b5b5b } 
	</style>
	<g>
		<path class="s0" d="m882.8 780.6q-0.2 0-0.4-0.1-0.2 0-0.4-0.2-0.1-0.2-0.2-0.4-0.1-0.2-0.1-0.4v-337.6q0-0.3 0.2-0.5 0.1-0.3 0.3-0.4 0.3-0.2 0.6-0.2 0.3 0 0.5 0.1l62.8 28.5q0.3 0.1 0.5 0.1 0.2 0 0.4 0 0.2-0.1 0.4-0.3 0.2-0.1 0.3-0.3l22.1-48.8q0.1-0.2 0.1-0.4 0-0.2-0.1-0.4-0.1-0.3-0.2-0.4-0.2-0.2-0.4-0.3l-481.3-218.5q-0.1-0.1-0.2-0.1-0.1 0-0.2 0-0.1 0-0.2 0-0.2 0-0.3 0.1l-486.3 218q-0.2 0-0.4 0.2-0.1 0.2-0.2 0.4-0.1 0.2-0.1 0.4 0 0.2 0.1 0.4l20.3 49.1q0.1 0.2 0.3 0.4 0.1 0.1 0.3 0.2 0.2 0.1 0.5 0.1 0.2 0 0.4-0.1l55.6-24.9q0.2-0.1 0.5-0.1 0.3 0 0.6 0.2 0.2 0.1 0.3 0.4 0.2 0.2 0.2 0.5v334.1q0 0.2-0.1 0.4-0.1 0.2-0.3 0.4-0.1 0.1-0.3 0.2-0.2 0.1-0.5 0.1h-74.5q-0.2 0-0.4 0.1-0.2 0.1-0.4 0.2-0.1 0.2-0.2 0.4-0.1 0.2-0.1 0.4v41.3q0 0.2 0.1 0.4 0.1 0.2 0.2 0.4 0.2 0.1 0.4 0.2 0.2 0.1 0.4 0.1h1018.8q0.2 0 0.4-0.1 0.3-0.1 0.4-0.2 0.2-0.2 0.3-0.4 0-0.2 0-0.4v-41.1q0-0.3 0-0.5-0.1-0.2-0.3-0.3-0.1-0.2-0.4-0.3-0.2-0.1-0.4-0.1z"/>
		<path class="s1" d="m381.3 309l-27.6 11.8q-4.4 1.9 0.4 1.8l28-0.3"/>
		<path class="s0" d="m382.1 322.3l0.1 5.7"/>
		<path class="s1" d="m382.2 328q-19.3-0.2-38.5-0.1c-5.2 0.1-8.4 2.3-12.6 3.8q-0.8 0.3-45.7 20-2.8 1.2 0.3 1.2l92.8-1q3.2-0.1 3.2 3.2 0 0.1 0 0.2 0.2 2.8-3 2.8-24 0-100.8-0.1-6.3 0-13.4 3.2-34.9 15.5-48.2 21.5-1.4 0.6 0.1 0.6h163.4q1.8 0 1.9 1.7 0.1 0.9-0.1 1.5-0.5 1.4-2 1.5-35.7 0.3-59.9 0c-11.1-0.2-19.5 0.8-28.6 0.4q-8.4-0.4-21.5-0.2-29.3 0.5-59.2 0.3-6.8-0.1-9.7 1.2-23.2 9.9-53.7 24.2-2.6 1.2 0.3 1.2 25.4-0.9 57.7-1.1 49.7-0.3 173.8-0.1 2.9 0 2.9 2.9v0.7q0 0.3-0.1 0.6-0.1 0.3-0.3 0.5-0.3 0.2-0.5 0.3-0.3 0.1-0.6 0.1-73.5 0.1-240.7 0.8-6.5 0-8.1 0.8-20.5 9.7-44.2 20.3-1 0.4-1.5 1.9-0.1 0.4 0 0.7 0 0.4 0.3 0.7 0.2 0.4 0.6 0.5 0.3 0.2 0.7 0.2l294.9-0.8"/>
		<path class="s0" d="m382.2 444.1q0 0.5 0 0.9"/>
		<path class="s1" d="m382.2 445q0.6 4.9-4.2 5-43 0.3-163.1-0.3c-42.5-0.2-86.1 1-126.9 0.4q-0.5 0-0.9 0.2-0.5 0.2-0.8 0.5-0.4 0.4-0.6 0.8-0.2 0.5-0.2 1v23.3q0 0.3 0.2 0.6 0.1 0.3 0.3 0.5 0.2 0.2 0.5 0.4 0.3 0.1 0.6 0.1h58.8q2.2 0 2.2-2.2v-5q0-0.3 0.1-0.6 0.2-0.3 0.4-0.5 0.2-0.2 0.4-0.3 0.3-0.1 0.6-0.1l232.3-0.1"/>
		<path class="s0" d="m381.9 468.7v308.3q0 3 3.1 3h489.5q0.2 0 0.3 0 0.1-0.1 0.2-0.2 0.1-0.1 0.2-0.2 0-0.1 0-0.2v-341.8q0-1.4-1.1-1.9l-385.4-175q-0.2 0-0.3-0.1-0.2 0-0.3 0-0.2 0-0.4 0-0.1 0.1-0.3 0.1l-106.1 48.3"/>
		<path class="s2" d="m381.9 468.7l0.3-23.7"/>
		<path class="s2" d="m382.2 444.1v-116.1"/>
		<path class="s2" d="m382.1 322.3l-0.8-13.3"/>
		<path class="s1" d="m148.2 483.8q0-0.2-0.1-0.4-0.1-0.3-0.3-0.5-0.2-0.1-0.4-0.2-0.3-0.1-0.5-0.1l-59.9 0.4q-0.3 0-0.5 0.1-0.3 0.1-0.4 0.3-0.2 0.2-0.3 0.4-0.1 0.2-0.1 0.5l0.1 20.9q0 0.2 0.1 0.4 0.1 0.3 0.3 0.5 0.2 0.1 0.4 0.2 0.3 0.1 0.5 0.1l59.9-0.4q0.3 0 0.5-0.1 0.3-0.1 0.4-0.3 0.2-0.2 0.3-0.4 0.1-0.2 0.1-0.5z"/>
		<path class="s1" d="m148.2 513.5q-0.1-0.3-0.2-0.6-0.1-0.3-0.3-0.5-0.3-0.3-0.6-0.4-0.3-0.1-0.6-0.1h-59.7q-0.4 0-0.7 0.1-0.3 0.1-0.5 0.4-0.2 0.2-0.3 0.5-0.2 0.3-0.2 0.6v22.4q0 0.3 0.2 0.6 0.1 0.3 0.3 0.5 0.2 0.3 0.5 0.4 0.3 0.1 0.7 0.1h59.7q0.3 0 0.6-0.1 0.3-0.1 0.6-0.4 0.2-0.2 0.3-0.5 0.1-0.3 0.2-0.6z"/>
		<path class="s1" d="m148.3 545q0-0.4-0.2-0.8-0.2-0.4-0.4-0.6-0.3-0.3-0.7-0.5-0.4-0.1-0.8-0.1l-59.2 0.1q-0.4 0-0.8 0.1-0.4 0.2-0.7 0.5-0.2 0.3-0.4 0.6-0.1 0.4-0.1 0.8v18.5q0 0.4 0.2 0.7 0.1 0.4 0.4 0.7 0.3 0.3 0.6 0.4 0.4 0.2 0.8 0.2l59.3-0.1q0.4 0 0.8-0.2 0.3-0.1 0.6-0.4 0.3-0.3 0.4-0.7 0.2-0.3 0.2-0.7z"/>
		<path class="s1" d="m148.2 573.2q0-0.5-0.2-0.9-0.1-0.4-0.5-0.7-0.3-0.3-0.7-0.5-0.4-0.2-0.9-0.2h-58.5q-0.5 0-0.9 0.2-0.4 0.2-0.7 0.5-0.3 0.3-0.5 0.7-0.2 0.4-0.2 0.9v19.2q0 0.5 0.2 0.9 0.2 0.4 0.5 0.7 0.3 0.4 0.7 0.5 0.4 0.2 0.9 0.2h58.5q0.5 0 0.9-0.2 0.4-0.1 0.7-0.5 0.4-0.3 0.5-0.7 0.2-0.4 0.2-0.9z"/>
		<path class="s1" d="m148.1 602.3q0-0.4-0.2-0.8-0.2-0.4-0.5-0.7-0.3-0.3-0.6-0.5-0.4-0.1-0.9-0.1h-58.9q-0.4 0-0.8 0.1-0.4 0.2-0.7 0.5-0.3 0.3-0.5 0.7-0.1 0.4-0.1 0.8v18.2q0 0.4 0.1 0.8 0.2 0.4 0.5 0.7 0.3 0.3 0.7 0.4 0.4 0.2 0.8 0.2h58.9q0.5 0 0.9-0.2 0.3-0.1 0.6-0.4 0.3-0.3 0.5-0.7 0.2-0.4 0.2-0.8z"/>
		<path class="s0" d="m354.7 629.9c0-1.4-0.3-2.8-0.8-4.2-0.6-1.3-1.4-2.5-2.4-3.6-1.1-1-2.3-1.8-3.6-2.4-1.4-0.5-2.8-0.8-4.2-0.8-1.5 0-2.9 0.3-4.3 0.8-1.3 0.6-2.5 1.4-3.6 2.4-1 1.1-1.8 2.3-2.4 3.6-0.5 1.4-0.8 2.8-0.8 4.2 0 1.5 0.3 2.9 0.8 4.3 0.6 1.3 1.4 2.5 2.4 3.6 1.1 1 2.3 1.8 3.6 2.4 1.4 0.5 2.8 0.8 4.3 0.8 1.4 0 2.8-0.3 4.2-0.8 1.3-0.6 2.5-1.4 3.6-2.4 1-1.1 1.8-2.3 2.4-3.6 0.5-1.4 0.8-2.8 0.8-4.3z"/>
		<path class="s1" d="m147.8 629.6q0-0.3-0.1-0.5-0.1-0.3-0.3-0.5-0.2-0.2-0.4-0.3-0.3-0.1-0.6-0.1l-60-0.1q-0.2 0-0.5 0.1-0.2 0.1-0.4 0.3-0.2 0.2-0.3 0.5-0.1 0.2-0.1 0.5l-0.1 20.4q0 0.3 0.1 0.5 0.1 0.3 0.3 0.5 0.2 0.2 0.5 0.3 0.2 0.1 0.5 0.1l60 0.1q0.3 0 0.5-0.1 0.3-0.1 0.5-0.3 0.2-0.2 0.3-0.5 0.1-0.2 0.1-0.5z"/>
		<path class="s1" d="m148 658.6q0-0.4-0.2-0.8-0.1-0.3-0.4-0.6-0.3-0.2-0.6-0.4-0.4-0.1-0.7-0.1l-59.2 0.2q-0.3 0-0.7 0.1-0.3 0.2-0.6 0.4-0.3 0.3-0.4 0.7-0.2 0.3-0.2 0.7l0.1 20.4q0 0.4 0.2 0.7 0.1 0.4 0.4 0.6 0.2 0.3 0.6 0.4 0.3 0.2 0.7 0.2l59.1-0.2q0.4 0 0.8-0.2 0.3-0.1 0.6-0.4 0.3-0.3 0.4-0.6 0.1-0.4 0.1-0.7z"/>
		<path class="s1" d="m148.2 688.6q0-0.5-0.2-1-0.2-0.4-0.5-0.8-0.4-0.3-0.8-0.5-0.5-0.2-1-0.2l-58.5-0.2q-0.5 0-1 0.2-0.4 0.2-0.8 0.5-0.3 0.4-0.5 0.8-0.2 0.5-0.2 1l-0.1 17.6q0 0.5 0.2 1 0.2 0.5 0.5 0.8 0.4 0.4 0.9 0.6 0.4 0.2 0.9 0.2l58.5 0.2q0.5 0 1-0.2 0.4-0.2 0.8-0.6 0.3-0.3 0.5-0.8 0.2-0.4 0.2-0.9z"/>
		<path class="s1" d="m148.2 715.5q0-0.3-0.1-0.6-0.2-0.3-0.4-0.5-0.2-0.3-0.5-0.4-0.3-0.1-0.7-0.1h-59.5q-0.4 0-0.7 0.1-0.3 0.1-0.5 0.4-0.2 0.2-0.4 0.5-0.1 0.3-0.1 0.6v20.3q0 0.3 0.1 0.6 0.2 0.4 0.4 0.6 0.2 0.2 0.5 0.4 0.3 0.1 0.7 0.1h59.5q0.4 0 0.7-0.1 0.3-0.2 0.5-0.4 0.2-0.2 0.4-0.6 0.1-0.3 0.1-0.6z"/>
		<path class="s1" d="m148 744.5q0-0.3-0.1-0.6-0.1-0.2-0.3-0.4-0.2-0.2-0.5-0.4-0.3-0.1-0.6-0.1l-59.5 0.2q-0.2 0-0.5 0.2-0.3 0.1-0.5 0.3-0.2 0.2-0.3 0.4-0.1 0.3-0.1 0.6l0.1 20q0 0.3 0.1 0.6 0.1 0.3 0.3 0.5 0.2 0.2 0.5 0.3 0.2 0.1 0.5 0.1l59.5-0.2q0.3 0 0.6-0.1 0.2-0.1 0.4-0.3 0.2-0.2 0.4-0.5 0.1-0.3 0.1-0.6z"/>
		<path class="s1" d="m148.5 774.3q0-0.4-0.2-0.8-0.2-0.4-0.5-0.7-0.3-0.3-0.7-0.5-0.4-0.1-0.8-0.1l-58.2-0.2q-0.5 0-0.9 0.1-0.3 0.2-0.6 0.5-0.4 0.3-0.5 0.7-0.2 0.4-0.2 0.8v2.6q0 0.5 0.2 0.9 0.1 0.3 0.4 0.6 0.3 0.4 0.7 0.5 0.4 0.2 0.8 0.2l58.3 0.2q0.4 0 0.8-0.2 0.4-0.1 0.7-0.4 0.3-0.3 0.5-0.7 0.1-0.4 0.1-0.9z"/>
		<path class="s0" d="m796.1 487q0-0.1-0.1-0.3-0.1-0.2-0.2-0.3-0.1-0.1-0.3-0.1-0.1-0.1-0.3-0.1h-276.2q-0.1 0-0.3 0.1-0.2 0-0.3 0.1-0.1 0.1-0.2 0.3 0 0.2 0 0.3v163.5q0 0.2 0 0.3 0.1 0.2 0.2 0.3 0.1 0.1 0.3 0.2 0.2 0 0.3 0h276.2q0.2 0 0.3 0 0.2-0.1 0.3-0.2 0.1-0.1 0.2-0.3 0.1-0.1 0.1-0.3z"/>
		<path class="s0" d="m654.4 508.4q0-0.2 0-0.3-0.1-0.2-0.2-0.3-0.2-0.2-0.3-0.2-0.2-0.1-0.4-0.1h-115q-0.2 0-0.4 0.1-0.1 0-0.3 0.2-0.1 0.1-0.2 0.3 0 0.1 0 0.3v122.2q0 0.2 0 0.4 0.1 0.1 0.2 0.3 0.2 0.1 0.3 0.2 0.2 0 0.4 0h115q0.2 0 0.4 0 0.1-0.1 0.3-0.2 0.1-0.2 0.2-0.3 0-0.2 0-0.4z"/>
		<path class="s0" d="m776.4 508.8q0-0.2-0.1-0.5-0.1-0.2-0.3-0.4-0.1-0.1-0.3-0.2-0.3-0.1-0.5-0.1h-92.7q-0.2 0-0.4 0.1-0.2 0.1-0.4 0.2-0.2 0.2-0.3 0.4-0.1 0.3-0.1 0.5v121.6q0 0.2 0.1 0.4 0.1 0.3 0.3 0.4 0.2 0.2 0.4 0.3 0.2 0.1 0.4 0.1h92.7q0.2 0 0.5-0.1 0.2-0.1 0.3-0.3 0.2-0.1 0.3-0.4 0.1-0.2 0.1-0.4z"/>
	</g>
	<path class="s3" d="m882.8 780.6h139.4q0.2 0 0.4 0.1 0.3 0.1 0.4 0.3 0.2 0.1 0.3 0.3 0 0.2 0 0.5v41.1q0 0.2 0 0.4-0.1 0.2-0.3 0.4-0.1 0.1-0.4 0.2-0.2 0.1-0.4 0.1h-1018.8q-0.2 0-0.4-0.1-0.2-0.1-0.4-0.2-0.1-0.2-0.2-0.4-0.1-0.2-0.1-0.4v-41.3q0-0.2 0.1-0.4 0.1-0.2 0.2-0.4 0.2-0.1 0.4-0.2 0.2-0.1 0.4-0.1h74.5q0.3 0 0.5-0.1 0.2-0.1 0.3-0.2 0.2-0.2 0.3-0.4 0.1-0.2 0.1-0.4v-334.1q0-0.3-0.2-0.5-0.1-0.3-0.3-0.4-0.3-0.2-0.6-0.2-0.3 0-0.5 0.1l-55.6 24.9q-0.2 0.1-0.4 0.1-0.3 0-0.5-0.1-0.2-0.1-0.3-0.2-0.2-0.2-0.3-0.4l-20.3-49.1q-0.1-0.2-0.1-0.4 0-0.2 0.1-0.4 0.1-0.2 0.2-0.4 0.2-0.2 0.4-0.2l486.3-218q0.1-0.1 0.3-0.1 0.1 0 0.2 0 0.1 0 0.2 0 0.1 0 0.2 0.1l481.3 218.5q0.2 0.1 0.4 0.3 0.1 0.1 0.2 0.4 0.1 0.2 0.1 0.4 0 0.2-0.1 0.4l-22.1 48.8q-0.1 0.2-0.3 0.3-0.2 0.2-0.4 0.3-0.2 0-0.4 0-0.2 0-0.5-0.1l-62.8-28.5q-0.2-0.1-0.5-0.1-0.3 0-0.6 0.2-0.2 0.1-0.3 0.4-0.2 0.2-0.2 0.5v337.6q0 0.2 0.1 0.4 0.1 0.2 0.2 0.4 0.2 0.2 0.4 0.2 0.2 0.1 0.4 0.1zm-501.5-471.6l-27.6 11.8q-4.4 1.9 0.4 1.8l28-0.3 0.1 5.7q-19.3-0.2-38.5-0.1c-5.2 0.1-8.4 2.3-12.6 3.8q-0.8 0.3-45.7 20-2.8 1.2 0.3 1.2l92.8-1q3.2-0.1 3.2 3.2 0 0.1 0 0.2 0.2 2.8-3 2.8-24 0-100.8-0.1-6.3 0-13.4 3.2-34.9 15.5-48.2 21.5-1.4 0.6 0.1 0.6h163.4q1.8 0 1.9 1.7 0.1 0.9-0.1 1.5-0.5 1.4-2 1.5-35.7 0.3-59.9 0c-11.1-0.2-19.5 0.8-28.6 0.4q-8.4-0.4-21.5-0.2-29.3 0.5-59.2 0.3-6.8-0.1-9.7 1.2-23.2 9.9-53.7 24.2-2.6 1.2 0.3 1.2 25.4-0.9 57.7-1.1 49.7-0.3 173.8-0.1 2.9 0 2.9 2.9v0.7q0 0.3-0.1 0.6-0.1 0.3-0.3 0.5-0.3 0.2-0.5 0.3-0.3 0.1-0.6 0.1-73.5 0.1-240.7 0.8-6.5 0-8.1 0.8-20.5 9.7-44.2 20.3-1 0.4-1.5 1.9-0.1 0.4 0 0.7 0 0.4 0.3 0.7 0.2 0.4 0.6 0.5 0.3 0.2 0.7 0.2l294.9-0.8q0 0.5 0 0.9 0.6 4.9-4.2 5-43 0.3-163.1-0.3c-42.5-0.2-86.1 1-126.9 0.4q-0.5 0-0.9 0.2-0.5 0.2-0.8 0.5-0.4 0.4-0.6 0.8-0.2 0.5-0.2 1v23.3q0 0.3 0.2 0.6 0.1 0.3 0.3 0.5 0.2 0.2 0.5 0.4 0.3 0.1 0.6 0.1h58.8q2.2 0 2.2-2.2v-5q0-0.3 0.1-0.6 0.2-0.3 0.4-0.5 0.2-0.2 0.4-0.3 0.3-0.1 0.6-0.1l232.3-0.1v308.3q0 3 3.1 3h489.5q0.2 0 0.3 0 0.1-0.1 0.2-0.2 0.1-0.1 0.2-0.2 0-0.1 0-0.2v-341.8q0-1.4-1.1-1.9l-385.4-175q-0.2 0-0.3-0.1-0.2 0-0.3 0-0.2 0-0.4 0-0.1 0.1-0.3 0.1zm-233.2 174.9q0-0.2-0.1-0.5-0.1-0.2-0.2-0.4-0.2-0.2-0.5-0.3-0.2 0-0.5 0l-59.9 0.4q-0.2 0-0.5 0.1-0.2 0.1-0.4 0.3-0.2 0.1-0.3 0.4-0.1 0.2-0.1 0.5l0.2 20.8q0 0.3 0.1 0.5 0.1 0.3 0.3 0.5 0.2 0.1 0.4 0.2 0.2 0.1 0.5 0.1l59.9-0.4q0.3 0 0.5-0.1 0.2-0.1 0.4-0.3 0.2-0.2 0.3-0.4 0.1-0.2 0.1-0.5zm0 29.7q0-0.4-0.2-0.7-0.1-0.3-0.3-0.5-0.2-0.2-0.5-0.3-0.3-0.2-0.7-0.2h-59.7q-0.3 0-0.6 0.2-0.3 0.1-0.6 0.3-0.2 0.2-0.3 0.5-0.2 0.3-0.2 0.7v22.3q0 0.4 0.2 0.7 0.1 0.3 0.3 0.5 0.3 0.2 0.6 0.3 0.3 0.2 0.6 0.2h59.7q0.4 0 0.7-0.2 0.3-0.1 0.5-0.3 0.2-0.2 0.3-0.5 0.2-0.3 0.2-0.7zm0.1 31.5q0-0.4-0.2-0.8-0.1-0.3-0.4-0.6-0.3-0.3-0.7-0.4-0.3-0.2-0.7-0.2l-59.3 0.1q-0.4 0-0.8 0.2-0.4 0.1-0.6 0.4-0.3 0.3-0.5 0.7-0.1 0.3-0.1 0.7v18.5q0 0.4 0.2 0.8 0.1 0.4 0.4 0.6 0.3 0.3 0.6 0.5 0.4 0.1 0.8 0.1l59.3-0.1q0.4 0 0.8-0.1 0.3-0.2 0.6-0.5 0.3-0.3 0.4-0.6 0.2-0.4 0.2-0.8zm0 28.2q0-0.4-0.2-0.9-0.2-0.4-0.5-0.7-0.3-0.3-0.8-0.5-0.4-0.2-0.8-0.2h-58.6q-0.4 0-0.8 0.2-0.4 0.2-0.8 0.5-0.3 0.3-0.5 0.7-0.1 0.5-0.1 0.9v19.3q0 0.4 0.1 0.8 0.2 0.5 0.5 0.8 0.4 0.3 0.8 0.5 0.4 0.1 0.8 0.1h58.6q0.4 0 0.8-0.1 0.5-0.2 0.8-0.5 0.3-0.3 0.5-0.8 0.2-0.4 0.2-0.8zm-0.2 29q0-0.4-0.2-0.8-0.1-0.3-0.4-0.6-0.3-0.3-0.7-0.5-0.4-0.2-0.8-0.2h-59q-0.4 0-0.8 0.2-0.4 0.2-0.7 0.5-0.3 0.3-0.4 0.6-0.2 0.4-0.2 0.8v18.3q0 0.4 0.2 0.8 0.1 0.3 0.4 0.6 0.3 0.3 0.7 0.5 0.4 0.2 0.8 0.2h59q0.4 0 0.8-0.2 0.4-0.2 0.7-0.5 0.3-0.3 0.4-0.6 0.2-0.4 0.2-0.8zm206.6 27.6c0-1.4-0.2-2.9-0.8-4.2-0.6-1.3-1.4-2.6-2.4-3.6-1-1-2.2-1.8-3.6-2.4-1.3-0.5-2.8-0.8-4.2-0.8-1.5 0-2.9 0.3-4.2 0.8-1.4 0.6-2.6 1.4-3.6 2.4-1 1-1.9 2.3-2.4 3.6-0.6 1.3-0.9 2.8-0.9 4.2 0 1.5 0.3 2.9 0.9 4.3 0.5 1.3 1.4 2.5 2.4 3.5 1 1.1 2.2 1.9 3.6 2.4 1.3 0.6 2.7 0.9 4.2 0.9 1.4 0 2.9-0.3 4.2-0.9 1.4-0.5 2.6-1.3 3.6-2.4 1-1 1.8-2.2 2.4-3.5 0.6-1.4 0.8-2.8 0.8-4.3zm-206.8-0.3q0-0.3-0.2-0.5-0.1-0.3-0.2-0.5-0.2-0.2-0.5-0.3-0.2-0.1-0.5-0.1l-60-0.1q-0.3 0-0.5 0.1-0.3 0.1-0.5 0.3-0.2 0.2-0.3 0.5-0.1 0.2-0.1 0.5v20.4q0 0.3 0.1 0.5 0.1 0.3 0.3 0.4 0.2 0.2 0.4 0.3 0.3 0.1 0.5 0.1l60 0.2q0.3 0 0.6-0.1 0.2-0.2 0.4-0.3 0.2-0.2 0.3-0.5 0.1-0.2 0.1-0.5zm0.2 28.9q0-0.3-0.2-0.7-0.1-0.3-0.4-0.6-0.2-0.3-0.6-0.4-0.4-0.2-0.7-0.2l-59.2 0.3q-0.3 0-0.7 0.1-0.3 0.2-0.6 0.4-0.3 0.3-0.4 0.6-0.2 0.4-0.1 0.8v20.4q0 0.3 0.2 0.7 0.1 0.3 0.4 0.6 0.3 0.3 0.6 0.4 0.4 0.2 0.7 0.2l59.2-0.2q0.3 0 0.7-0.2 0.3-0.1 0.6-0.4 0.3-0.3 0.4-0.6 0.2-0.4 0.2-0.8zm0.2 30.1q0-0.5-0.2-1-0.2-0.4-0.6-0.8-0.3-0.4-0.8-0.6-0.4-0.1-0.9-0.1l-58.5-0.2q-0.5-0.1-1 0.1-0.4 0.2-0.8 0.6-0.4 0.3-0.6 0.8-0.1 0.5-0.1 1l-0.1 17.6q0 0.5 0.2 1 0.2 0.4 0.5 0.8 0.4 0.4 0.8 0.6 0.5 0.1 1 0.1l58.5 0.3q0.5 0 1-0.2 0.4-0.2 0.8-0.6 0.3-0.3 0.5-0.8 0.2-0.5 0.2-1zm0 27q0-0.4-0.1-0.7-0.1-0.3-0.4-0.5-0.2-0.2-0.5-0.4-0.3-0.1-0.7-0.1h-59.5q-0.4 0-0.7 0.1-0.3 0.2-0.5 0.4-0.2 0.2-0.4 0.5-0.1 0.3-0.1 0.7v20.2q0 0.4 0.1 0.7 0.2 0.3 0.4 0.5 0.2 0.3 0.5 0.4 0.3 0.1 0.7 0.1h59.5q0.4 0 0.7-0.1 0.3-0.1 0.5-0.4 0.3-0.2 0.4-0.5 0.1-0.3 0.1-0.7zm-0.2 29q0-0.3-0.1-0.6-0.1-0.2-0.3-0.4-0.2-0.2-0.5-0.3-0.3-0.2-0.6-0.2l-59.4 0.2q-0.3 0.1-0.6 0.2-0.3 0.1-0.5 0.3-0.2 0.2-0.3 0.5-0.1 0.2-0.1 0.5l0.1 20.1q0 0.3 0.1 0.5 0.1 0.3 0.3 0.5 0.2 0.2 0.5 0.3 0.2 0.1 0.5 0.1l59.5-0.2q0.3 0 0.6-0.1 0.2-0.1 0.5-0.3 0.2-0.2 0.3-0.5 0.1-0.3 0.1-0.6zm0.4 29.9q0-0.4-0.1-0.8-0.2-0.4-0.5-0.7-0.3-0.3-0.7-0.5-0.4-0.2-0.8-0.2l-58.2-0.2q-0.5 0-0.9 0.2-0.4 0.2-0.7 0.5-0.3 0.3-0.4 0.6-0.2 0.4-0.2 0.9v2.6q0 0.4 0.2 0.8 0.1 0.4 0.4 0.7 0.3 0.3 0.7 0.5 0.4 0.1 0.8 0.1l58.3 0.2q0.4 0 0.8-0.1 0.4-0.2 0.7-0.5 0.3-0.3 0.5-0.7 0.1-0.4 0.1-0.8z"/>
	<path class="s4" d="m381.9 468.7l0.3-23.7q0-0.4 0-0.9v-116.1l-0.1-5.7-0.8-13.3 106.1-48.3q0.2 0 0.3-0.1 0.2 0 0.4 0 0.1 0 0.3 0 0.1 0.1 0.3 0.1l385.4 175q1.1 0.5 1.1 1.9v341.8q0 0.1 0 0.2-0.1 0.1-0.2 0.2-0.1 0.1-0.2 0.2-0.1 0-0.3 0h-489.5q-3.1 0-3.1-3zm414.2 18.3q0-0.2-0.1-0.3-0.1-0.2-0.2-0.3-0.1-0.1-0.3-0.2-0.1 0-0.3 0h-276.2q-0.1 0-0.3 0-0.2 0.1-0.3 0.2-0.1 0.1-0.2 0.3 0 0.1 0 0.3v163.5q0 0.2 0 0.3 0.1 0.2 0.2 0.3 0.1 0.1 0.3 0.2 0.2 0 0.3 0h276.2q0.2 0 0.3 0 0.2-0.1 0.3-0.2 0.1-0.1 0.2-0.3 0.1-0.1 0.1-0.3z"/>
	<path class="s5" d="m381.3 309l0.8 13.3-28 0.3q-4.8 0.1-0.4-1.8z"/>
	<path class="s5" d="m382.2 328v116.1l-294.9 0.8q-0.4 0-0.7-0.2-0.4-0.1-0.6-0.5-0.3-0.3-0.3-0.7-0.1-0.3 0-0.7 0.5-1.5 1.5-1.9 23.7-10.6 44.2-20.3 1.6-0.8 8.1-0.8 167.2-0.7 240.7-0.8 0.3 0 0.6-0.1 0.2-0.1 0.5-0.3 0.2-0.2 0.3-0.5 0.1-0.3 0.1-0.6v-0.7q0-2.9-2.9-2.9-124.1-0.2-173.8 0.1-32.3 0.2-57.7 1.1-2.9 0-0.3-1.2 30.5-14.3 53.7-24.2 2.9-1.3 9.7-1.2 29.9 0.2 59.2-0.3 13.1-0.2 21.5 0.2c9.1 0.4 17.5-0.6 28.6-0.4q24.2 0.3 59.9 0 1.5-0.1 2-1.5 0.2-0.6 0.1-1.5-0.1-1.7-1.9-1.7h-163.4q-1.5 0-0.1-0.6 13.3-6 48.2-21.5 7.1-3.2 13.4-3.2 76.8 0.1 100.8 0.1 3.2 0 3-2.8 0-0.1 0-0.2 0-3.3-3.2-3.2l-92.8 1q-3.1 0-0.3-1.2 44.9-19.7 45.7-20c4.2-1.5 7.4-3.7 12.6-3.8q19.2-0.1 38.5 0.1z"/>
	<path class="s5" d="m381.9 468.7l-232.3 0.1q-0.3 0-0.6 0.1-0.2 0.1-0.4 0.3-0.2 0.2-0.4 0.5-0.1 0.3-0.1 0.6v5q0 2.2-2.2 2.2h-58.8q-0.3 0-0.6-0.1-0.3-0.2-0.5-0.4-0.2-0.2-0.3-0.5-0.2-0.3-0.2-0.6v-23.3q0-0.5 0.2-1 0.2-0.4 0.6-0.8 0.3-0.3 0.8-0.5 0.4-0.2 0.9-0.2c40.8 0.6 84.4-0.6 126.9-0.4q120.1 0.6 163.1 0.3 4.8-0.1 4.2-5z"/>
	<path fill-rule="evenodd" class="s5" d="m87 483l59.9-0.4c0.7 0 1.3 0.5 1.3 1.2l0.1 20.9c0 0.7-0.5 1.3-1.3 1.3l-59.9 0.4c-0.7 0-1.3-0.5-1.3-1.2l-0.1-20.9c0-0.7 0.6-1.3 1.3-1.3z"/>
	<path class="s3" d="m796.1 650.5q0 0.2-0.1 0.3-0.1 0.2-0.2 0.3-0.1 0.1-0.3 0.2-0.1 0-0.3 0h-276.2q-0.1 0-0.3 0-0.2-0.1-0.3-0.2-0.1-0.1-0.2-0.3 0-0.1 0-0.3v-163.5q0-0.1 0-0.3 0.1-0.2 0.2-0.3 0.1-0.1 0.3-0.1 0.2-0.1 0.3-0.1h276.2q0.2 0 0.3 0.1 0.2 0 0.3 0.1 0.1 0.1 0.2 0.3 0.1 0.2 0.1 0.3zm-141.7-142.1q0-0.2 0-0.3-0.1-0.2-0.2-0.3-0.2-0.1-0.3-0.2-0.2-0.1-0.4-0.1h-115q-0.2 0-0.4 0.1-0.1 0.1-0.3 0.2-0.1 0.1-0.2 0.3 0 0.1 0 0.3v122.2q0 0.2 0 0.4 0.1 0.2 0.2 0.3 0.2 0.1 0.3 0.2 0.2 0.1 0.4 0.1h115q0.2 0 0.4-0.1 0.1-0.1 0.3-0.2 0.1-0.1 0.2-0.3 0-0.2 0-0.4zm122 0.4q0-0.2-0.1-0.4-0.1-0.2-0.3-0.4-0.1-0.2-0.3-0.3-0.3-0.1-0.5-0.1h-92.7q-0.2 0-0.4 0.1-0.2 0.1-0.4 0.3-0.2 0.2-0.3 0.4-0.1 0.2-0.1 0.4v121.6q0 0.3 0.1 0.5 0.1 0.2 0.3 0.4 0.2 0.1 0.4 0.2 0.2 0.1 0.4 0.1h92.7q0.2 0 0.5-0.1 0.2-0.1 0.3-0.2 0.2-0.2 0.3-0.4 0.1-0.2 0.1-0.5z"/>
	<path fill-rule="evenodd" class="s4" d="m538.5 507.5h115c0.5 0 0.9 0.4 0.9 0.9v122.2c0 0.5-0.4 0.9-0.9 0.9h-115c-0.5 0-0.9-0.4-0.9-0.9v-122.2c0-0.5 0.4-0.9 0.9-0.9z"/>
	<path fill-rule="evenodd" class="s4" d="m682.5 507.6h92.7c0.7 0 1.2 0.5 1.2 1.2v121.6c0 0.7-0.5 1.2-1.2 1.2h-92.7c-0.6 0-1.2-0.5-1.2-1.2v-121.6c0-0.7 0.6-1.2 1.2-1.2z"/>
	<path fill-rule="evenodd" class="s5" d="m86.8 511.9h59.7c0.9 0 1.7 0.7 1.7 1.6v22.4c0 0.9-0.8 1.6-1.7 1.6h-59.7c-0.9 0-1.7-0.7-1.7-1.6v-22.4c0-0.9 0.8-1.6 1.7-1.6z"/>
	<path fill-rule="evenodd" class="s5" d="m87 543.1l59.2-0.1c1.2 0 2.1 0.9 2.1 2v18.5c0 1.1-0.9 2-2 2l-59.3 0.1c-1.1 0-2-0.9-2-2v-18.5c0-1.1 0.9-2 2-2z"/>
	<path fill-rule="evenodd" class="s5" d="m87.4 570.9h58.5c1.3 0 2.3 1 2.3 2.3v19.2c0 1.3-1 2.3-2.3 2.3h-58.5c-1.3 0-2.3-1-2.3-2.3v-19.2c0-1.3 1-2.3 2.3-2.3z"/>
	<path fill-rule="evenodd" class="s5" d="m87 600.2h58.9c1.2 0 2.2 0.9 2.2 2.1v18.2c0 1.1-1 2.1-2.2 2.1h-58.9c-1.2 0-2.1-1-2.1-2.1v-18.2c0-1.2 0.9-2.1 2.1-2.1z"/>
	<path fill-rule="evenodd" class="s4" d="m343.7 641c-6.2 0-11.1-4.9-11.1-11.1 0-6.1 4.9-11 11.1-11 6.1 0 11 4.9 11 11 0 6.2-4.9 11.1-11 11.1z"/>
	<path fill-rule="evenodd" class="s5" d="m86.4 628.1l60 0.1c0.8 0 1.4 0.6 1.4 1.4v20.4c0 0.8-0.6 1.4-1.4 1.4l-60-0.1c-0.7 0-1.4-0.7-1.4-1.4l0.1-20.4c0-0.8 0.6-1.4 1.3-1.4z"/>
	<path fill-rule="evenodd" class="s5" d="m86.9 656.9l59.2-0.2c1 0 1.9 0.8 1.9 1.9v20.4c0.1 1-0.8 1.9-1.9 1.9l-59.1 0.2c-1 0-1.9-0.9-1.9-1.9l-0.1-20.4c0-1.1 0.9-1.9 1.9-1.9z"/>
	<path fill-rule="evenodd" class="s5" d="m87.2 685.9l58.5 0.2c1.4 0 2.5 1.1 2.5 2.5l-0.1 17.7c0 1.4-1.1 2.5-2.5 2.5l-58.5-0.2c-1.4 0-2.5-1.2-2.5-2.6l0.1-17.6c0-1.4 1.1-2.5 2.5-2.5z"/>
	<path fill-rule="evenodd" class="s5" d="m87 713.9h59.5c0.9 0 1.7 0.7 1.7 1.6v20.3c0 0.9-0.8 1.7-1.7 1.7h-59.5c-1 0-1.7-0.8-1.7-1.7v-20.3c0-0.9 0.7-1.6 1.7-1.6z"/>
	<path fill-rule="evenodd" class="s5" d="m87 743.2l59.5-0.2c0.8 0 1.5 0.7 1.5 1.5l0.1 20c0 0.8-0.7 1.5-1.5 1.5l-59.5 0.2c-0.8 0-1.4-0.6-1.4-1.5l-0.1-20c0-0.8 0.6-1.5 1.4-1.5z"/>
	<path fill-rule="evenodd" class="s5" d="m88.1 772l58.2 0.2c1.2 0 2.2 0.9 2.2 2.1l-0.1 2.6c0 1.2-0.9 2.2-2.1 2.2l-58.3-0.2c-1.1 0-2.1-1-2.1-2.2v-2.6c0-1.2 1-2.1 2.2-2.1z"/>
</svg>