<svg xmlns="http://www.w3.org/2000/svg" width="64" height="64" enable-background="new 0 0 64 64" viewBox="0 0 64 64" id="bed">
  <path d="M1 36.998c-.553 0-1-.447-1-1 0-3.859 3.141-7 7-7 .553 0 1 .448 1 1s-.447 1-1 1c-2.757 0-5 2.243-5 5C2 36.551 1.553 36.998 1 36.998zM63 36.998c-.552 0-1-.447-1-1-.001-2.757-2.244-5-5-5-.553 0-1-.448-1-1s.447-1 1-1c3.858 0 6.999 3.14 7 7C64 36.55 63.553 36.998 63 36.998L63 36.998z"></path>
  <path d="M57 30.999H7c-.553 0-1-.448-1-1s.447-1 1-1h50c.553 0 1 .448 1 1S57.553 30.999 57 30.999zM1 47.004c-.553 0-1-.447-1-1V35.998c0-.553.447-1 1-1s1 .447 1 1v10.006C2 46.557 1.553 47.004 1 47.004z"></path>
  <path d="M3 49.004c-1.654 0-3-1.346-3-3 0-.553.447-1 1-1s1 .447 1 1c0 .552.448 1 1 1 .553 0 1 .447 1 1S3.553 49.004 3 49.004zM63 47.004c-.553 0-1-.447-1-1V35.998c0-.553.447-1 1-1s1 .447 1 1v10.006C64 46.557 63.553 47.004 63 47.004z"></path>
  <path d="M61,49.004c-0.553,0-1-0.447-1-1s0.447-1,1-1c0.552,0,1-0.448,1-1c0-0.553,0.447-1,1-1s1,0.447,1,1
				C64,47.658,62.654,49.004,61,49.004z"></path>
  <path d="M61 49.004H3c-.553 0-1-.447-1-1s.447-1 1-1h58c.553 0 1 .447 1 1S61.553 49.004 61 49.004zM63 44.002H1c-.553 0-1-.447-1-1s.447-1 1-1h62c.553 0 1 .447 1 1S63.553 44.002 63 44.002z"></path>
  <path d="M5.002,53.002c-0.553,0-1-0.447-1-1v-3.998c0-0.553,0.447-1,1-1s1,0.447,1,1v3.998
				C6.002,52.555,5.555,53.002,5.002,53.002z"></path>
  <path d="M15.002,53.002h-10c-0.553,0-1-0.447-1-1s0.447-1,1-1h10c0.553,0,1,0.447,1,1S15.555,53.002,15.002,53.002z"></path>
  <path d="M15.002 53.002c-.553 0-1-.447-1-1v-3.998c0-.553.447-1 1-1s1 .447 1 1v3.998C16.002 52.555 15.555 53.002 15.002 53.002zM48.998 53.002c-.553 0-1-.447-1-1v-3.998c0-.553.447-1 1-1s1 .447 1 1v3.998C49.998 52.555 49.551 53.002 48.998 53.002z"></path>
  <path d="M58.998,53.002h-10c-0.553,0-1-0.447-1-1s0.447-1,1-1h10c0.553,0,1,0.447,1,1S59.551,53.002,58.998,53.002z"></path>
  <path d="M58.998 53.002c-.553 0-1-.447-1-1v-3.998c0-.553.447-1 1-1s1 .447 1 1v3.998C59.998 52.555 59.551 53.002 58.998 53.002zM7 30.999c-.553 0-1-.448-1-1V14c0-.552.447-1 1-1s1 .448 1 1v15.998C8 30.551 7.553 30.999 7 30.999zM57 30.999c-.553 0-1-.448-1-1V14c0-.552.447-1 1-1s1 .448 1 1v15.998C58 30.551 57.553 30.999 57 30.999zM54.998 13H9.002c-.553 0-1-.448-1-1s.447-1 1-1h45.996c.553 0 1 .448 1 1S55.551 13 54.998 13zM12.998 27.001c-.553 0-1-.448-1-1 0-1.655 1.346-3.001 3-3.001.553 0 1 .448 1 1s-.447 1-1 1c-.552 0-1 .449-1 1.001C13.998 26.554 13.551 27.001 12.998 27.001zM29.002 27.001c-.553 0-1-.448-1-1 0-.551-.448-.999-1-.999-.553 0-1-.448-1-1s.447-1 1-1c1.654 0 3 1.345 3 2.999C30.002 26.554 29.555 27.001 29.002 27.001z"></path>
  <path d="M12.998 31.001c-.553 0-1-.448-1-1v-4c0-.552.447-1 1-1s1 .448 1 1v4C13.998 30.554 13.551 31.001 12.998 31.001zM29.002 30.999c-.553 0-1-.448-1-1v-3.997c0-.552.447-1 1-1s1 .448 1 1v3.997C30.002 30.551 29.555 30.999 29.002 30.999zM27.002 25.002H14.998c-.553 0-1-.448-1-1s.447-1 1-1h12.004c.553 0 1 .448 1 1S27.555 25.002 27.002 25.002z"></path>
  <g>
    <path d="M35 27.001c-.553 0-1-.448-1-1C34 24.347 35.346 23 37 23c.553 0 1 .448 1 1s-.447 1-1 1c-.552 0-1 .449-1 1.001C36 26.554 35.553 27.001 35 27.001zM51.004 27.001c-.553 0-1-.448-1-1 0-.551-.448-.999-1-.999-.553 0-1-.448-1-1s.447-1 1-1c1.654 0 3 1.345 3 2.999C52.004 26.554 51.557 27.001 51.004 27.001z"></path>
    <path d="M35 31.001c-.553 0-1-.448-1-1v-4c0-.552.447-1 1-1s1 .448 1 1v4C36 30.554 35.553 31.001 35 31.001zM51.004 30.999c-.553 0-1-.448-1-1v-3.997c0-.552.447-1 1-1s1 .448 1 1v3.997C52.004 30.551 51.557 30.999 51.004 30.999zM49.004 25.002H37c-.553 0-1-.448-1-1s.447-1 1-1h12.004c.553 0 1 .448 1 1S49.557 25.002 49.004 25.002z"></path>
  </g>
  <g>
    <path d="M7,15c-0.553,0-1-0.448-1-1c0-1.655,1.347-3.002,3.002-3.002c0.553,0,1,0.448,1,1s-0.447,1-1,1S8,13.448,8,14
				S7.553,15,7,15z"></path>
  </g>
  <g>
    <path d="M57,15c-0.553,0-1-0.448-1-1s-0.449-1.002-1.002-1.002s-1-0.448-1-1s0.447-1,1-1C56.653,10.999,58,12.345,58,14
				C58,14.553,57.553,15,57,15z"></path>
  </g>
</svg>
