<svg xmlns="http://www.w3.org/2000/svg" xml:space="preserve" width="512" height="512" fill-rule="evenodd" clip-rule="evenodd" image-rendering="optimizeQuality" shape-rendering="geometricPrecision" text-rendering="geometricPrecision" id="hiking">
  <path fill="#2B2A29" d="M179 39c23 0 42 19 42 42s-19 42-42 42-42-19-42-42 19-42 42-42zm140 400-12-195c5-1 20-7 13-25l-15-3-3-52s-15-18-15 7c0 5 1 20 2 42l-45-9s-40-69-73-73-47 11-47 11-22-22-51 7-29 110-29 110l51 15-25 206c-28 3-61 9-59 24h497l-102-73s-4-4-37 0-44 7-44 7l-5 1zm-29-194c3 65 8 154 10 197l-41 7-16-110-55-55 7-66 29 29 65-3zm-73 212-113 21 40-157 51 40 22 96z" style="fill:#2b2a29"></path>
</svg>
