<svg xmlns="http://www.w3.org/2000/svg" viewBox="0 0 104 104" id="hiking">
  <path d="M61.74,101.81a6.42,6.42,0,0,1-6.41-6.41V83.56a5.29,5.29,0,0,0-1.24-3.4L39.48,62.77a9.34,9.34,0,0,1-1.64-9.13L46.4,29.76a8.41,8.41,0,0,1,11.27-4.89,11,11,0,0,1,4.77,4L71.27,42a1.17,1.17,0,0,0,1,.51h7.37a4.64,4.64,0,1,1,0,9.28H65.7a6,6,0,0,1-5-2.65L58,45,54.32,55.58a4,4,0,0,0,.85,4L66.49,71.89a6.26,6.26,0,0,1,1.66,4.26V95.4A6.42,6.42,0,0,1,61.74,101.81ZM54.32,26.17a6.51,6.51,0,0,0-2.55.53,6.35,6.35,0,0,0-3.49,3.73L39.72,54.31A7.34,7.34,0,0,0,41,61.48L55.62,78.87a7.32,7.32,0,0,1,1.71,4.69V95.4a4.41,4.41,0,0,0,8.82,0V76.15A4.3,4.3,0,0,0,65,73.24L53.7,61a6,6,0,0,1-1.27-6l4.12-12-3-4.41a1,1,0,0,1,.28-1.39,1,1,0,0,1,1.38.27L58.33,42a1.13,1.13,0,0,1,.29.43L62.38,48A4,4,0,0,0,65.7,49.8H79.61a2.64,2.64,0,1,0,0-5.28H72.24a3.15,3.15,0,0,1-2.63-1.4L60.78,30a9.07,9.07,0,0,0-3.9-3.25A6.56,6.56,0,0,0,54.32,26.17Z"></path>
  <path d="M34.6,59.76a4.38,4.38,0,0,1-1.37-.23L22.11,55.76a3.47,3.47,0,0,1-2.18-4.38L30.56,19.82a3.48,3.48,0,0,1,4.32-2.2L46.2,21.14a4.9,4.9,0,0,1,3.15,6.36h0L38.55,57A4.2,4.2,0,0,1,34.6,59.76Zm-.75-40.3a1.47,1.47,0,0,0-1.39,1L21.83,52a1.46,1.46,0,0,0,.92,1.85l11.12,3.76a2.2,2.2,0,0,0,2.8-1.34l10.8-29.48a2.91,2.91,0,0,0-1.86-3.76L34.28,19.53A1.25,1.25,0,0,0,33.85,19.46Zm14.56,7.7h0Z"></path>
  <path d="M46.18 34.25a1 1 0 0 1-.33-.06L28.76 28.3a1 1 0 1 1 .65-1.89L46.5 32.3a1 1 0 0 1 .62 1.28A1 1 0 0 1 46.18 34.25zM42.31 44.8a1 1 0 0 1-.37-.07l-16.55-6.6a1 1 0 0 1 .74-1.86l16.55 6.6a1 1 0 0 1-.37 1.93zM38.78 55a1.21 1.21 0 0 1-.37-.07L21.94 48.38a1 1 0 0 1 .74-1.86l16.47 6.53A1 1 0 0 1 38.78 55zM26.6 102a6.58 6.58 0 0 1-6.45-5.28 6.62 6.62 0 0 1 1.18-5.25L34.86 73.32l1.76-16.79a1 1 0 1 1 2 .21L36.82 73.8a1 1 0 0 1-.2.49L22.93 92.67a4.59 4.59 0 0 0 7.3 5.57L45.56 78.62l1.67-7.24a1 1 0 1 1 2 .45l-1.72 7.45a.93.93 0 0 1-.18.39L31.8 99.47A6.61 6.61 0 0 1 26.6 102zM79.32 101.81a1 1 0 0 1-1-1v-50a1 1 0 0 1 2 0v50A1 1 0 0 1 79.32 101.81zM79.32 44.53a1 1 0 0 1-1-1V33.24a1 1 0 0 1 2 0V43.53A1 1 0 0 1 79.32 44.53zM63.48 23.16A10.58 10.58 0 1 1 74.06 12.58 10.59 10.59 0 0 1 63.48 23.16zM63.48 4a8.58 8.58 0 1 0 8.58 8.58A8.59 8.59 0 0 0 63.48 4z"></path>
</svg>
