<svg xmlns="http://www.w3.org/2000/svg" viewBox="0 0 64 64" id="hiking">
  <path d="M52.48 43.8a1 1 0 0 0-1 0l-5.91 3.78V30.76a2.76 2.76 0 0 0 1.91-.82 2.86 2.86 0 0 0-1.91-4.88v-5.54a1 1 0 1 0-2 0v5.53H37l-6.57-5a2.86 2.86 0 0 0-2.09-.58 4.72 4.72 0 0 0-2.5.52 9.65 9.65 0 0 0-.69-2.22 5 5 0 0 0-2.85-2.72c-2.14-.71-3.8-.71-5.1 0-1.89 1-2.61 3.39-3.19 5.71-1 4-2 9-2 9a1.36 1.36 0 0 0 0 .2 6.23 6.23 0 0 0 4.76 6 6.39 6.39 0 0 0 1.52.19 5.57 5.57 0 0 0 3-.91l-1.16 6.63-5.73 7.56a2.6 2.6 0 0 0-.28.45l-3.22.33a1 1 0 0 0-.9 1V54a1 1 0 0 0 1 1h41a1 1 0 0 0 1-1v-9.32a1 1 0 0 0-.52-.88Zm-12.56 3.57-2.4-9.25v-.22a3.24 3.24 0 0 0-1.54-2.1l-4.63-2.72.8-4.6 2.3 1.76a2.75 2.75 0 0 0 2.26.53h6.91v17.31ZM17.24 34A4.24 4.24 0 0 1 14 30c.16-.76 1.07-5.24 2-8.84.58-2.3 1.15-3.85 2.21-4.44.78-.42 1.93-.38 3.5.15 2 .67 2.35 3.88 2.35 4.71a4.63 4.63 0 0 0-.68 1.72l-1.47 8.54A4.28 4.28 0 0 1 17.24 34ZM51 53H12v-.9l2.92-.3a1 1 0 0 0 .87-.74 1.19 1.19 0 0 1 .21-.42l5.9-7.74a1.14 1.14 0 0 0 .19-.47l1.42-8.19c0-.21.17-1.07.23-1.34l1.59-9.18a2.73 2.73 0 0 1 3-2.24 1.51 1.51 0 0 0 .3 0 .73.73 0 0 1 .62.18l6.85 5.21a1 1 0 0 0 .61.2h8.76a.87.87 0 0 1 .86.86.88.88 0 0 1-.27.63.79.79 0 0 1-.59.23H36.15a.83.83 0 0 1-.52-.18L32 25.89a1 1 0 0 0-1.6.63l-1.19 6.9a1 1 0 0 0 .48 1l5.23 3.07a1.28 1.28 0 0 1 .58.75 1 1 0 0 0 .09.32l2.58 9.92a1.14 1.14 0 0 0 .26.47 1 1 0 0 0 .83.3h.12l4.94 1h.16a1 1 0 0 0 .78-.13L51 46.51ZM33.19 40a1 1 0 0 0-.52-.64l-5.28-3.1-.13-.08A.77.77 0 0 0 27 36h-.69a.47.47 0 0 0-.09.06l-.09.06a.86.86 0 0 0-.13.14v.05a1.4 1.4 0 0 0-.1.16v.06a.75.75 0 0 0 0 .16v.07l-1.08 6.17a1 1 0 0 0-.09.41 1.05 1.05 0 0 1-.25.6l-4.18 5.49a1 1 0 0 0 .8 1.61H21l13.5-1.38a1 1 0 0 0 .87-1.24Zm-10.06 9 2.78-3.65a3.16 3.16 0 0 0 .65-1.6c0-.12.07-.24.1-.37l.82-4.75 3.88 2.28 1.82 7.06Zm7.44-30.29a4.73 4.73 0 1 0-4.73-4.73 4.74 4.74 0 0 0 4.73 4.68Zm0-7.46a2.73 2.73 0 1 1-2.73 2.73 2.74 2.74 0 0 1 2.73-2.78Z"></path>
</svg>
