<svg xmlns="http://www.w3.org/2000/svg" width="64" height="64" id="location-marker">
  <path d="M32 3.208c-7.531 0-13.998 5.359-15.38 12.745a.955.955 0 0 0-.013.089 15.034 15.034 0 0 0-.258 2.817c0 2.417.536 4.731 1.586 6.865l13.362 28.783a.75.75 0 0 0 1.36.001l13.448-28.864a15.493 15.493 0 0 0 1.546-6.785c0-8.63-7.021-15.651-15.651-15.651zm12.75 21.793L31.979 52.413l-12.69-27.336a13.964 13.964 0 0 1-1.439-6.218c0-.903.082-1.775.243-2.593l.012-.084C19.372 9.53 25.207 4.708 32 4.708c7.803 0 14.151 6.348 14.151 14.151 0 2.15-.469 4.213-1.401 6.142z"></path>
  <path d="M32 10.541c-4.327 0-7.848 3.521-7.848 7.848s3.521 7.848 7.848 7.848 7.848-3.521 7.848-7.848-3.521-7.848-7.848-7.848zm0 14.195c-3.5 0-6.348-2.848-6.348-6.348S28.5 12.041 32 12.041s6.348 2.848 6.348 6.348S35.5 24.736 32 24.736zm0 30.656c-1.806 0-10.813.13-10.813 2.7s9.007 2.7 10.813 2.7 10.813-.13 10.813-2.7-9.007-2.7-10.813-2.7zm0 3.9c-5.144 0-8.254-.717-9.134-1.2.88-.483 3.99-1.2 9.134-1.2s8.254.717 9.134 1.2c-.88.483-3.99 1.2-9.134 1.2z"></path>
</svg>
