<svg version="1.2" xmlns="http://www.w3.org/2000/svg" viewBox="0 0 1024 1024" width="1024" height="1024">
	<title>niko1_Minimalist_tiny_rental_house_logo_featuring_a_small_mode_d2dd76ff-7e61-4655-864d-085762d80698</title>
	<style>
		.s0 { fill: none;stroke: #807e7b;stroke-width: 2 } 
		.s1 { fill: none;stroke: #807c75;stroke-width: 2 } 
		.s2 { fill: none;stroke: #6e6b65;stroke-width: 2 } 
		.s3 { fill: none;stroke: #ede5d9;stroke-width: 2 } 
		.s4 { fill: #010101 } 
		.s5 { fill: #dbd4c9 } 
		.s6 { fill: #fef6e8 } 
		.s7 { fill: #fefaf4 } 
	</style>
	<g>
		<path class="s0" d="m711.2 665.4q-0.8 0-0.8-0.9v-220q0-1.6-1.6-1.6-9.8-0.2-20.3-0.2-2.7-0.1-3.6-0.3-0.4-0.1-0.5-0.6 0-0.1 0-0.3 0-0.1 0.1-0.2 0.1-0.1 0.1-0.2 0.1 0 0.2-0.1c1.2-0.5 1.8-0.8 1.8-2.2q0.3-14.2 0-31.7 0-0.1-0.1-0.3 0-0.1-0.1-0.2-0.2-0.1-0.3-0.2-0.1 0-0.3 0h-12.7q-0.1 0-0.2 0-0.1 0.1-0.2 0.1-0.1 0.1-0.1 0.2-0.1 0.1-0.1 0.3-0.2 15.5 0.1 31.7c0 1.2 0.6 2 1.4 2.8q0.1 0.1 0.2 0.4 0 0.2-0.1 0.4-0.1 0.2-0.3 0.3-0.2 0.2-0.4 0.2h-49.2q-0.2 0-0.3-0.1-0.2-0.1-0.3-0.2-0.1-0.1-0.2-0.3-0.1-0.1-0.1-0.3v-26.8q0-0.2 0.1-0.3 0-0.2 0.2-0.3 0.1-0.2 0.2-0.3 0.2-0.1 0.3-0.1l63.6-15.5q0.1-0.1 0.2-0.1 0.1-0.1 0.2-0.2 0-0.1 0-0.2 0.1-0.1 0.1-0.2l-1.7-22.7q0-0.2-0.1-0.3-0.1-0.1-0.2-0.2-0.1 0-0.2-0.1-0.2 0-0.3 0l-446.2 109.1q-0.2 0-0.3 0.1-0.1 0.1-0.2 0.3-0.1 0.1-0.2 0.3 0 0.2 0 0.4l2.8 21.3q0.1 0.1 0.1 0.3 0.1 0.1 0.3 0.2 0.1 0.1 0.3 0.1 0.1 0.1 0.3 0l41.3-10.1q0.2 0 0.5 0 0.2 0.1 0.4 0.2 0.2 0.2 0.3 0.4 0.1 0.2 0.1 0.4v166.9q0 0.1-0.1 0.3 0 0.2-0.2 0.3-0.1 0.1-0.3 0.2-0.1 0.1-0.3 0.1h-82.8q-0.1 0-0.3 0-0.1 0.1-0.2 0.2-0.1 0.1-0.1 0.2-0.1 0.1-0.1 0.2v13.2q0 0.1 0.1 0.2 0 0.1 0.1 0.2 0.1 0 0.2 0.1 0.1 0 0.2 0h635.7q0.1 0 0.1 0 0 0 0 0 0.1-0.1 0.1-0.1 0 0 0-0.1v-13.3q0-0.2-0.1-0.3 0-0.2-0.2-0.3-0.1-0.1-0.2-0.2-0.2 0-0.3 0h-61.3q-1 0-1-1v-7.9q0-1 1-1h4.7q0.5 0 0.5-0.4v-26.1q0-0.1 0-0.2-0.1 0-0.1-0.1-0.1 0-0.1-0.1-0.1 0-0.2 0h-37.7q-0.1 0-0.2 0-0.1 0.1-0.2 0.2-0.1 0.1-0.2 0.2 0 0.1 0 0.2v25.8q0 0.1 0 0.2 0.1 0.1 0.2 0.2 0 0.1 0.1 0.1 0.1 0.1 0.2 0.1h4.1q0.6 0 0.6 0.6v8.4q0 0.8-0.8 0.8z"/>
		<path class="s1" d="m288.5 504.4v40.9"/>
		<path class="s2" d="m288.5 545.3q-0.2 0.6 0 1.2"/>
		<path class="s1" d="m288.5 546.5l-0.1 107.4"/>
		<path class="s2" d="m288.4 653.9l0.1 1.3"/>
		<path class="s1" d="m288.5 655.2l-0.1 9.6q0 0.6 0.7 0.6h211.5q0.7 0 0.7-0.7v-4q0-0.8-0.8-0.8h-149.1q-0.5 0-0.5-0.5l-0.2-4.2"/>
		<path class="s2" d="m350.7 655.2l0.1-1.3"/>
		<path class="s1" d="m350.8 653.9v-59.9"/>
		<path class="s2" d="m350.8 594l-0.1-1.3"/>
		<path class="s1" d="m350.7 592.7v-14.3"/>
		<path class="s2" d="m350.7 578.4q0.2-0.8 0.1-1"/>
		<path class="s1" d="m350.8 577.4v-62.1"/>
		<path class="s2" d="m350.8 515.3q0.3-0.4 0-1.2"/>
		<path class="s1" d="m350.8 514.1h222.7"/>
		<path class="s2" d="m573.5 514.1l0.1 1"/>
		<path class="s1" d="m573.6 515.1l-0.2 77.4"/>
		<path class="s2" d="m573.4 592.5v1.4"/>
		<path class="s1" d="m573.4 593.9v12.4"/>
		<path class="s2" d="m573.4 606.3v3"/>
		<path class="s1" d="m573.4 609.3l-0.1 13.4"/>
		<path class="s2" d="m573.3 622.7q-0.3 0.5 0.1 2.6"/>
		<path class="s1" d="m573.4 625.3v13.6"/>
		<path class="s2" d="m573.4 638.9v2.4"/>
		<path class="s1" d="m573.4 641.3l0.1 12.6"/>
		<path class="s2" d="m573.5 653.9q-0.1 0.2-0.1 0.3"/>
		<path class="s1" d="m573.4 654.2v10.6q0 0.6 0.6 0.6h45.3q0.5 0 0.5-0.5v-9.7"/>
		<path class="s2" d="m619.8 655.2q0.1-0.6 0-1.3"/>
		<path class="s1" d="m619.8 653.9v-13.8"/>
		<path class="s2" d="m619.8 640.1q-0.1-0.6 0-1.1"/>
		<path class="s1" d="m619.8 639v-14.8"/>
		<path class="s2" d="m619.8 624.2v-1.3"/>
		<path class="s1" d="m619.8 622.9l0.1-14.8"/>
		<path class="s2" d="m619.9 608.1v-19.4"/>
		<path class="s1" d="m619.9 588.7l-0.1-10.6"/>
		<path class="s2" d="m619.8 578.1q0.2-0.4-0.1-0.9"/>
		<path class="s1" d="m619.7 577.2l0.1-14.2"/>
		<path class="s2" d="m619.8 563v-1.1"/>
		<path class="s1" d="m619.8 561.9l0.1-14.6"/>
		<path class="s2" d="m619.9 547.3l-0.1-2.4"/>
		<path class="s1" d="m619.8 544.9v-12.9"/>
		<path class="s2" d="m619.8 532q0.1-1.3 0-1.8"/>
		<path class="s1" d="m619.8 530.2v-13.9"/>
		<path class="s2" d="m619.8 516.3l-0.1-2.3"/>
		<path class="s1" d="m619.7 514l0.2-7.5"/>
		<path class="s2" d="m619.9 506.5v-38.3"/>
		<path class="s1" d="m619.9 468.3l-0.1-14.4"/>
		<path class="s2" d="m619.8 453.9l-0.1-0.9"/>
		<path class="s1" d="m619.7 453l0.1-12.7"/>
		<path class="s2" d="m619.8 440.3v-1.2"/>
		<path class="s1" d="m619.8 439.1l-0.1-16.4"/>
		<path class="s2" d="m619.7 422.7l-0.2-6.8q0-0.1 0-0.2-0.1-0.1-0.2-0.2-0.1-0.1-0.2-0.1-0.1-0.1-0.3 0l-329.9 80.6q-0.1 0.1-0.2 0.1-0.1 0.1-0.1 0.1-0.1 0.1-0.1 0.2 0 0.1-0.1 0.2l0.1 7.8"/>
		<path class="s3" d="m619.7 422.7l-0.6-0.1q-0.5-0.1-0.7 0.5c-0.3 0.7-0.9 1.3-1.7 1.5q-5.3 1.1-10.9 1.6 0 0-0.1 0 0 0 0 0.1-0.1 0-0.1 0 0 0.1 0 0.1v0.4q0 0.4 0.4 0.4h12q0.2 0 0.2 0.2v0.4q0 0.1 0 0.1c-2.8 0.2-6.1 0.4-9.2 0.3q-6.7-0.3-13.5 0.4c-1.2 0.1-2.1 0.6-3.6 1-7.7 2.3-14.6 3.4-22.4 5.6-4.3 1.2-10.6 2.5-11.4 3.3q-0.1 0.1-0.1 0.2 0 0.1 0 0.2 0.1 0.1 0.2 0.2 0.1 0.1 0.2 0.1l61.3-0.1"/>
		<path class="s3" d="m619.8 440.3q-36.2-0.4-72.3 0.2-1.9 0-2.5 0.3-4.7 1.9-10 3.2-9.7 2.5-26.1 7c-1.6 0.5-3 0.3-4.5 0.6q-0.2 0.1-0.2 0.3v0.4q0 0.1 0 0.2 0.1 0.1 0.1 0.1 0.1 0.1 0.2 0.1 0.1 0.1 0.2 0.1l115 0.2"/>
		<path class="s3" d="m619.8 453.9q-4.8 0-9.5 0-41.8-0.1-91.8 0.2-1 0-14.1-0.3c-4.1-0.1-7.7 0.2-11.6 0.6-1.9 0.2-3.2 1.1-4.7 1.5q-7.2 1.8-12.1 3.2c-9.3 2.5-19 4.5-28.8 7.3-2.6 0.7-5 0.8-7.5 1.3q-0.1 0-0.1 0-0.1 0-0.1 0.1 0 0 0 0.1-0.1 0-0.1 0.1v0.3q0 0.3 0.3 0.3 22.9-0.1 43.6 0.1 13.1 0.2 20 0.2c35.5-0.2 69 0.1 111.2-0.4q2.5 0 5.4-0.2"/>
		<path class="s3" d="m619.9 506.5l-0.2-6.2q0-0.2-0.1-0.4 0-0.1-0.2-0.3-0.1-0.1-0.3-0.2-0.2-0.1-0.4-0.1-123-0.1-138.8-0.2-1.1-0.1-1.5-0.1-2.6-0.4-0.2-0.5 17.3-0.3 28.3-0.3 56.4-0.1 112.8-0.1 0.1 0 0.1 0 0 0 0.1-0.1 0 0 0 0 0-0.1 0-0.1v-13.8q0-0.2 0-0.3-0.1-0.1-0.2-0.2-0.1-0.1-0.2-0.1-0.1-0.1-0.2-0.1-12-0.1-37.9-0.2-16 0-202.4-0.1-0.9 0-3.3 0.3-1.4 0.2-3.1 0.8-4.9 1.7-9.9 2.9-34.1 8.4-35.7 8.7-3.3 0.6-5.3 1.3-1.1 0.4 0.1 0.7 0.6 0.2 1.9 0.2c11.6-0.1 24.9-0.2 38 0.1q13.9 0.3 25 0.1 5.1-0.1 77.4 0.3 0.2 0 0.2 0.2 0 0.2-0.2 0.2-74.2 0.4-148.4 0.2-3.3 0-5.4 0.6-11 3.5-21.4 4.7"/>
		<path class="s3" d="m619.7 514l-46.2 0.1"/>
		<path class="s3" d="m350.8 514.1l-61.2 0.1q-0.3 0-0.3 0.3v0.4q0 0.3 0.3 0.3l61.2 0.1"/>
		<path class="s3" d="m350.8 577.4l-60.9-0.3q-0.5 0-0.5 0.4v0.5q0 0.1 0.1 0.1 0 0.1 0.1 0.2 0 0 0.1 0 0.1 0.1 0.1 0.1h60.9"/>
		<path class="s3" d="m350.7 592.7l-60.7-0.1q-0.1 0-0.1 0.1 0 0-0.1 0 0 0 0 0-0.1 0.1-0.1 0.1l-0.2 0.3q-0.1 0.1-0.1 0.3-0.1 0.2 0 0.3 0.1 0.1 0.2 0.2 0.2 0.1 0.3 0.1h60.9"/>
		<path class="s3" d="m350.8 653.9h-62.4"/>
		<path class="s3" d="m288.5 546.5h60.7q0.5 0 0.5-0.5v-0.3q0 0 0-0.1 0-0.1-0.1-0.2-0.1 0-0.1 0-0.1-0.1-0.2-0.1h-60.8"/>
		<path class="s3" d="m350.7 655.2h-62.2"/>
		<path class="s3" d="m619.8 516.3l-0.5-0.7q-0.2-0.4-0.8-0.4h-44.9"/>
		<path class="s3" d="m619.8 530.2l-45.2 0.3q-0.3 0-0.3 0.3v0.4q0 0.1 0.1 0.1 34.1-0.1 44.4 0 0.4 0.1 1 0.7"/>
		<path class="s3" d="m619.8 544.9l-45.1 0.3q-0.6 0-0.6 0.6v0.3q0 0.2 0.3 0.2 18.8 0.7 32.6 0.1 7.6-0.2 12.9 0.9"/>
		<path class="s3" d="m619.8 561.9l-45.4-0.1q-0.1 0-0.1 0-0.1 0.1-0.1 0.1 0 0.1-0.1 0.1 0 0.1 0 0.1v0.4q0 0.2 0.2 0.2l45.5 0.3"/>
		<path class="s3" d="m619.7 577.2h-21.2q-0.3 0-0.3 0.3v0.3q0 0.3 0.3 0.3h21.3"/>
		<path class="s3" d="m619.9 588.7l-0.2 3.4q0 0.5-0.5 0.5l-45.8-0.1"/>
		<path class="s3" d="m619.9 608.1l-45.9-0.2q-0.5 0-0.5 0.5l-0.1 0.9"/>
		<path class="s3" d="m573.4 606.3l46.1 0.2q0 0 0.1 0 0.1-0.1 0.1-0.1 0.1-0.1 0.1-0.1 0-0.1 0-0.1v-11.5q0-0.1-0.1-0.3 0-0.1-0.1-0.2-0.1-0.1-0.2-0.1-0.2-0.1-0.3-0.1l-45.7-0.1"/>
		<path class="s3" d="m619.8 622.9l-46.5-0.2"/>
		<path class="s3" d="m619.8 624.2q-23.1 0.1-46 0.1-0.4 0-0.4 1"/>
		<path class="s3" d="m619.8 639l-46.4-0.1"/>
		<path class="s3" d="m619.8 640.1q-22.8 0.1-45.5-0.1-0.6 0-0.8 0.3-0.2 0.4-0.1 1"/>
		<path class="s3" d="m619.8 653.9h-46.3"/>
		<path class="s3" d="m619.8 655.2q-21.9 0-43.8 0.1-2.9 0-2.6-1.1"/>
		<path class="s2" d="m419.8 620.7q0 0.2 0.1 0.3 0 0.1 0.1 0.2 0.1 0.1 0.3 0.2 0.1 0 0.2 0h60.9q0.2 0 0.3 0.1 0.1 0.1 0.2 0.2 0.1 0.1 0.2 0.2 0.1 0.1 0.1 0.3v29.9q0 0.1 0 0.3 0.1 0.1 0.2 0.2 0.1 0.1 0.2 0.2 0.1 0 0.3 0h17.5q0.2 0 0.3 0 0.1-0.1 0.2-0.2 0.1-0.1 0.2-0.2 0-0.2 0-0.3v-132.5q0-0.1 0-0.2-0.1-0.2-0.2-0.3-0.1-0.1-0.2-0.1-0.1-0.1-0.3-0.1h-79.9q-0.1 0-0.2 0.1-0.2 0-0.3 0.1-0.1 0.1-0.1 0.3-0.1 0.1-0.1 0.2z"/>
		<path class="s2" d="m414.2 519.8q0-0.2-0.1-0.3 0-0.2-0.1-0.3-0.1-0.1-0.3-0.1-0.1-0.1-0.2-0.1h-55.1q-0.1 0-0.2 0.1-0.2 0-0.3 0.1-0.1 0.1-0.1 0.3-0.1 0.1-0.1 0.3v132.1q0 0.1 0.1 0.2 0 0.2 0.1 0.3 0.1 0.1 0.3 0.1 0.1 0.1 0.2 0.1h55.1q0.1 0 0.2-0.1 0.2 0 0.3-0.1 0.1-0.1 0.1-0.3 0.1-0.1 0.1-0.2z"/>
		<path class="s2" d="m517 528.5q-0.1 0-0.2 0-0.1 0-0.1 0.1-0.1 0.1-0.2 0.2 0 0.1 0 0.2v71.7q0 0.1 0 0.2 0.1 0.1 0.2 0.1 0 0.1 0.1 0.1 0.1 0.1 0.2 0.1h2.9q0.1 0 0.2 0 0.1 0.1 0.2 0.1 0 0.1 0.1 0.2 0 0.1 0 0.2v12.1q0 0.1 0 0.2-0.1 0.1-0.1 0.2-0.1 0-0.2 0.1-0.1 0-0.2 0h-2.9q-0.1 0-0.2 0.1-0.1 0-0.2 0.1 0 0-0.1 0.1 0 0.1 0 0.2v39.6q0 0.1 0 0.2 0.1 0.1 0.1 0.2 0.1 0.1 0.2 0.1 0.1 0 0.2 0h41.6q0.1 0 0.2 0 0.1 0 0.2-0.1 0.1-0.1 0.1-0.2 0.1-0.1 0.1-0.2v-125.4q0-0.1-0.1-0.2 0-0.1-0.1-0.2-0.1-0.1-0.2-0.1-0.1 0-0.2 0z"/>
		<path class="s2" d="m518.3 606q0-0.1-0.1-0.2-0.1-0.2-0.2-0.3-0.1 0-0.2-0.1-0.1 0-0.3 0l-4.7 0.1q-0.1 0-0.2 0-0.2 0.1-0.3 0.2-0.1 0.1-0.1 0.2-0.1 0.2-0.1 0.3l0.2 5.2q0 0.1 0.1 0.2 0 0.2 0.1 0.3 0.1 0 0.2 0.1 0.2 0 0.3 0l4.7-0.1q0.2 0 0.3 0 0.1-0.1 0.2-0.2 0.1-0.1 0.2-0.2 0-0.2 0-0.3z"/>
		<path class="s2" d="m480.2 624q0-0.2-0.1-0.3-0.1-0.2-0.2-0.3-0.1-0.1-0.3-0.2-0.1-0.1-0.3-0.1h-58.8q-0.1 0-0.3 0.1-0.2 0.1-0.3 0.2-0.1 0.1-0.2 0.3 0 0.1 0 0.3v8.6q0 0.2 0 0.3 0.1 0.2 0.2 0.3 0.1 0.1 0.3 0.2 0.2 0 0.3 0h58.8q0.2 0 0.3 0 0.2-0.1 0.3-0.2 0.1-0.1 0.2-0.3 0.1-0.1 0.1-0.3z"/>
		<path class="s2" d="m480.4 635.6q-0.1-0.1-0.1-0.3 0-0.1-0.1-0.2-0.1-0.1-0.2-0.1-0.2 0-0.3 0h-59.4q-0.1 0-0.2 0-0.2 0-0.2 0.1-0.1 0.1-0.2 0.2 0 0.2 0 0.3v6.6q0 0.2 0 0.3 0.1 0.1 0.2 0.2 0 0.1 0.2 0.1 0.1 0.1 0.2 0.1h59.4q0.1 0 0.3-0.1 0.1 0 0.2-0.1 0.1-0.1 0.1-0.2 0-0.1 0.1-0.3z"/>
		<path class="s2" d="m480.2 644.8q0-0.1 0-0.2-0.1-0.1-0.2-0.2 0 0-0.1-0.1-0.1 0-0.2 0h-59.5q-0.1 0-0.2 0-0.1 0.1-0.1 0.1-0.1 0.1-0.1 0.2-0.1 0.1-0.1 0.2v7.4q0 0.1 0.1 0.2 0 0 0.1 0.1 0 0.1 0.1 0.1 0.1 0.1 0.2 0.1h59.5q0.1 0 0.2-0.1 0.1 0 0.1-0.1 0.1-0.1 0.2-0.1 0-0.1 0-0.2z"/>
		<path class="s0" d="m769.1 656.2q0-0.2 0-0.3-0.1-0.1-0.1-0.2-0.1-0.1-0.2-0.1-0.2-0.1-0.3-0.1h-16.1q-0.1 0-0.2 0.1-0.1 0-0.2 0.1-0.1 0.1-0.1 0.2-0.1 0.1-0.1 0.2v8.6q0 0.1 0 0.2 0.1 0.1 0.2 0.2 0.1 0.1 0.2 0.2 0.1 0 0.2 0h16.1q0.1 0 0.2 0 0.2 0 0.2-0.1 0.1-0.1 0.2-0.2 0-0.2 0-0.3z"/>
		<path class="s1" d="m834 669.9q0-0.2-0.1-0.5-0.1-0.2-0.2-0.4-0.2-0.2-0.4-0.3-0.3 0-0.5 0h-627.5q-0.2 0-0.5 0-0.2 0.1-0.4 0.3-0.1 0.2-0.2 0.4-0.1 0.3-0.1 0.5v5.5q0 0.3 0.1 0.5 0.1 0.2 0.2 0.4 0.2 0.2 0.4 0.3 0.3 0.1 0.5 0.1h627.5q0.2 0 0.5-0.1 0.2-0.1 0.4-0.3 0.1-0.2 0.2-0.4 0.1-0.2 0.1-0.5z"/>
		<path class="s3" d="m384.2 482.1q0 0 0 0 0 0 0 0 0 0 0 0 0 0.1 0.1 0h235q0.1 0 0.1 0 0.1-0.1 0.2-0.1 0-0.1 0.1-0.1 0-0.1 0-0.2v-11.2q0-0.1-0.1-0.2 0-0.1-0.1-0.1 0-0.1-0.1-0.2-0.1 0-0.2 0-85.6-0.2-171.2-0.1c-4.9 0-12.8-0.6-18.9 0.3q-0.5 0.1-0.9 0.3-1.1 0.8-2.4 1-4.2 0.9-6.6 1.4-21.6 5.4-29.1 7.3c-2 0.6-4.1 0.6-6.2 1.1q-0.5 0-0.2 0.4z"/>
		<path class="s3" d="m349.6 530.6q0 0 0-0.1 0 0 0-0.1-0.1 0-0.1 0-0.1 0-0.1 0h-59.8q-0.1 0-0.1 0-0.1 0-0.1 0-0.1 0.1-0.1 0.1 0 0.1 0 0.1v0.3q0 0.1 0 0.1 0 0.1 0.1 0.1 0 0 0.1 0.1 0 0 0.1 0h59.8q0 0 0.1 0 0-0.1 0.1-0.1 0 0 0-0.1 0 0 0-0.1z"/>
		<path class="s3" d="m350.1 562.6q0-0.1-0.1-0.2 0-0.1-0.1-0.1 0-0.1-0.1-0.2-0.1 0-0.2 0l-60-0.1q-0.1 0-0.2 0-0.1 0.1-0.1 0.1-0.1 0.1-0.1 0.2-0.1 0.1-0.1 0.2 0 0.1 0.1 0.2 0 0.1 0.1 0.1 0 0.1 0.1 0.1 0.1 0.1 0.2 0.1l60 0.1q0.1 0 0.2-0.1 0.1 0 0.1-0.1 0.1 0 0.1-0.1 0.1-0.1 0.1-0.2z"/>
		<path class="s3" d="m349.5 607.3q0-0.2-0.1-0.3 0-0.1-0.1-0.2-0.1-0.1-0.2-0.2-0.2-0.1-0.3-0.1l-59-0.1q-0.1 0-0.2 0.1-0.2 0-0.3 0.1-0.1 0.1-0.1 0.3-0.1 0.1-0.1 0.2v0.1q0 0.1 0.1 0.2 0 0.2 0.1 0.3 0.1 0.1 0.3 0.1 0.1 0.1 0.2 0.1l59 0.1q0.1 0 0.3-0.1 0.1 0 0.2-0.1 0.1-0.1 0.1-0.3 0.1-0.1 0.1-0.2z"/>
		<path class="s3" d="m349.5 623.5q0-0.1 0-0.2-0.1-0.1-0.2-0.2-0.1-0.1-0.2-0.1-0.1-0.1-0.2-0.1l-58.9-0.1q-0.1 0-0.3 0.1-0.1 0-0.2 0.1 0 0.1-0.1 0.2 0 0.1 0 0.2v0.1q0 0.1 0 0.2 0.1 0.1 0.1 0.2 0.1 0.1 0.2 0.2 0.2 0 0.3 0l58.9 0.1q0.1 0 0.2 0 0.1-0.1 0.2-0.2 0.1-0.1 0.2-0.2 0-0.1 0-0.2z"/>
		<path class="s3" d="m349.5 639.5q0-0.1-0.1-0.2 0-0.1-0.1-0.2-0.1-0.1-0.2-0.1-0.1-0.1-0.2-0.1h-59.2q-0.1 0-0.2 0.1-0.2 0-0.2 0.1-0.1 0.1-0.2 0.2 0 0.1 0 0.2v0.1q0 0.1 0 0.2 0.1 0.1 0.2 0.2 0 0.1 0.2 0.1 0.1 0 0.2 0.1l59.2-0.1q0.1 0 0.2 0 0.1 0 0.2-0.1 0.1-0.1 0.1-0.2 0.1-0.1 0.1-0.2z"/>
		<path class="s1" d="m597.6 571.7q0-0.1-0.1-0.2 0-0.1-0.1-0.2-0.1 0-0.2-0.1-0.1 0-0.2 0l-7.7-0.1q-0.2 0-0.3 0.1 0 0-0.1 0.1-0.1 0.1-0.1 0.2-0.1 0.1-0.1 0.2v11.3q0 0.1 0 0.2 0 0.1 0.1 0.2 0.1 0 0.2 0.1 0.1 0 0.2 0l7.8 0.1q0.1 0 0.2-0.1 0.1 0 0.1-0.1 0.1-0.1 0.2-0.2 0-0.1 0-0.2z"/>
		<path class="s3" d="m587.9 577.6q0-0.1-0.1-0.2 0 0-0.1-0.1-0.1-0.1-0.2-0.1 0-0.1-0.1-0.1h-12.8q-0.1 0-0.2 0-0.1 0-0.1 0.1-0.1 0.1-0.2 0.2 0 0.1 0 0.2 0 0.1 0 0.2 0.1 0.1 0.2 0.2 0 0 0.1 0.1 0.1 0 0.2 0l12.8 0.1q0.1 0 0.1-0.1 0.1 0 0.2-0.1 0.1 0 0.1-0.1 0-0.1 0-0.2z"/>
	</g>
	<path class="s4" d="m711.2 665.4h34.9q0.8 0 0.8-0.8v-8.4q0-0.6-0.6-0.6h-4.1q-0.1 0-0.2-0.1-0.1 0-0.1-0.1-0.1-0.1-0.2-0.2 0-0.1 0-0.2v-25.8q0-0.1 0-0.2 0.1-0.1 0.2-0.2 0.1-0.1 0.2-0.2 0.1 0 0.2 0h37.7q0.1 0 0.2 0 0 0.1 0.1 0.1 0 0.1 0.1 0.1 0 0.1 0 0.2v26.1q0 0.4-0.5 0.4h-4.7q-1 0-1 1v7.9q0 1 1 1h61.3q0.1 0 0.3 0 0.1 0.1 0.2 0.2 0.2 0.1 0.2 0.3 0.1 0.1 0.1 0.3v13.3q0 0.1 0 0.1 0 0-0.1 0.1 0 0 0 0 0 0-0.1 0h-635.7q-0.1 0-0.2 0-0.1-0.1-0.2-0.1-0.1-0.1-0.1-0.2-0.1-0.1-0.1-0.2v-13.2q0-0.1 0.1-0.2 0-0.1 0.1-0.2 0.1-0.1 0.2-0.2 0.2 0 0.3 0h82.8q0.2 0 0.3-0.1 0.2-0.1 0.3-0.2 0.2-0.1 0.2-0.3 0.1-0.2 0.1-0.3v-166.9q0-0.2-0.1-0.4-0.1-0.2-0.3-0.4-0.2-0.1-0.4-0.2-0.3 0-0.5 0l-41.3 10.1q-0.2 0.1-0.3 0-0.2 0-0.3-0.1-0.2-0.1-0.3-0.2 0-0.2-0.1-0.3l-2.8-21.3q0-0.2 0-0.4 0.1-0.2 0.2-0.3 0.1-0.2 0.2-0.3 0.1-0.1 0.3-0.1l446.2-109.1q0.1 0 0.3 0 0.1 0.1 0.2 0.1 0.1 0.1 0.2 0.2 0.1 0.1 0.1 0.3l1.7 22.7q0 0.1-0.1 0.2 0 0.1 0 0.2-0.1 0.1-0.2 0.2-0.1 0-0.2 0.1l-63.6 15.5q-0.1 0-0.3 0.1-0.1 0.1-0.2 0.3-0.2 0.1-0.2 0.3-0.1 0.1-0.1 0.3v26.8q0 0.2 0.1 0.3 0.1 0.2 0.2 0.3 0.1 0.1 0.3 0.2 0.1 0.1 0.3 0.1h49.2q0.2 0 0.4-0.2 0.2-0.1 0.3-0.3 0.1-0.2 0.1-0.4-0.1-0.3-0.2-0.4c-0.8-0.9-1.4-1.6-1.4-2.8q-0.3-16.2-0.1-31.7 0-0.2 0.1-0.3 0-0.1 0.1-0.2 0.1 0 0.2-0.1 0.1 0 0.2 0h12.7q0.2 0 0.3 0 0.1 0.1 0.3 0.2 0.1 0.1 0.1 0.2 0.1 0.2 0.1 0.3 0.3 17.5 0 31.7c0 1.4-0.6 1.7-1.8 2.2q-0.1 0.1-0.2 0.1 0 0.1-0.1 0.2-0.1 0.1-0.1 0.2 0 0.2 0 0.3 0.1 0.5 0.5 0.6 0.9 0.2 3.6 0.3 10.5 0 20.3 0.2 1.6 0 1.6 1.6v220q0 0.9 0.8 0.9zm-422.7-161v40.9q-0.2 0.6 0 1.2l-0.1 107.4 0.1 1.3-0.1 9.6q0 0.6 0.7 0.6h211.5q0.7 0 0.7-0.7v-4q0-0.8-0.8-0.8h-149.1q-0.5 0-0.5-0.5l-0.2-4.2 0.1-1.3v-59.9l-0.1-1.3v-14.3q0.2-0.8 0.1-1v-62.1q0.3-0.4 0-1.2h222.7l0.1 1-0.2 77.4v1.4 12.4 3l-0.1 13.4q-0.3 0.5 0.1 2.6v13.6 2.4l0.1 12.6q-0.1 0.2-0.1 0.3v10.6q0 0.6 0.6 0.6h45.3q0.5 0 0.5-0.5v-9.7q0.1-0.6 0-1.3v-13.8q-0.1-0.6 0-1.1v-14.8-1.3l0.1-14.8v-19.4l-0.1-10.6q0.2-0.4-0.1-0.9l0.1-14.2v-1.1l0.1-14.6-0.1-2.4v-12.9q0.1-1.2 0-1.8v-13.9l-0.1-2.3 0.2-7.5v-38.2l-0.1-14.4-0.1-0.9 0.1-12.7v-1.2l-0.1-16.4-0.2-6.8q0-0.1 0-0.2-0.1-0.1-0.2-0.2-0.1-0.1-0.2-0.1-0.1-0.1-0.3 0l-329.9 80.6q-0.1 0.1-0.2 0.1-0.1 0.1-0.1 0.1-0.1 0.1-0.1 0.2 0 0.1-0.1 0.2zm131.4 116.3q0 0.1 0 0.2 0.1 0.2 0.2 0.3 0.1 0.1 0.2 0.1 0.2 0.1 0.3 0.1h60.9q0.1 0 0.3 0.1 0.1 0 0.2 0.1 0.1 0.1 0.2 0.3 0 0.1 0 0.2v29.9q0 0.2 0.1 0.3 0 0.2 0.1 0.3 0.1 0.1 0.3 0.1 0.1 0.1 0.3 0.1h17.5q0.1 0 0.3-0.1 0.1 0 0.2-0.1 0.1-0.1 0.2-0.3 0-0.1 0-0.3v-132.4q0-0.1 0-0.3-0.1-0.1-0.2-0.2-0.1-0.1-0.2-0.2-0.2 0-0.3 0h-79.9q-0.1 0-0.3 0-0.1 0.1-0.2 0.2-0.1 0.1-0.2 0.2 0 0.2 0 0.3zm-5.7-101q0-0.1 0-0.2-0.1-0.2-0.2-0.3-0.1-0.1-0.2-0.1-0.1-0.1-0.3-0.1h-55q-0.1 0-0.3 0.1-0.1 0-0.2 0.1-0.1 0.1-0.1 0.3-0.1 0.1-0.1 0.2v132.2q0 0.1 0.1 0.2 0 0.2 0.1 0.3 0.1 0.1 0.2 0.1 0.2 0.1 0.3 0.1h55q0.2 0 0.3-0.1 0.1 0 0.2-0.1 0.1-0.1 0.2-0.3 0-0.1 0-0.2zm102.9 8.7q-0.1 0-0.2 0-0.1 0.1-0.2 0.1 0 0.1-0.1 0.2 0 0.1 0 0.2v71.7q0 0.1 0 0.2 0.1 0.1 0.1 0.1 0.1 0.1 0.2 0.2 0.1 0 0.2 0h2.9q0.1 0 0.2 0 0.1 0.1 0.1 0.2 0.1 0 0.2 0.1 0 0.1 0 0.2v12.1q0 0.1 0 0.2-0.1 0.1-0.2 0.2 0 0.1-0.1 0.1-0.1 0-0.2 0h-2.9q-0.1 0-0.2 0.1-0.1 0-0.2 0.1-0.1 0.1-0.1 0.2 0 0.1-0.1 0.2v39.5q0.1 0.1 0.1 0.2 0 0.1 0.1 0.2 0.1 0.1 0.2 0.1 0.1 0 0.2 0h41.6q0.1 0 0.2 0 0.1 0 0.2-0.1 0.1-0.1 0.1-0.2 0-0.1 0-0.2v-125.4q0-0.1 0-0.2 0-0.1-0.1-0.2-0.1 0-0.2-0.1-0.1 0-0.2 0zm1.2 77.6q0-0.2 0-0.3-0.1-0.1-0.2-0.2-0.1-0.1-0.2-0.2-0.1 0-0.3 0l-4.7 0.1q-0.1 0-0.3 0.1-0.1 0-0.2 0.1-0.1 0.1-0.1 0.3-0.1 0.1-0.1 0.2l0.2 5.2q0 0.1 0 0.3 0.1 0.1 0.2 0.2 0.1 0.1 0.2 0.1 0.2 0.1 0.3 0.1l4.7-0.2q0.1 0 0.3 0 0.1-0.1 0.2-0.2 0.1-0.1 0.1-0.2 0.1-0.1 0.1-0.3zm-38.1 18q0-0.2-0.1-0.4 0-0.1-0.2-0.2-0.1-0.2-0.2-0.2-0.2-0.1-0.4-0.1h-58.8q-0.1 0-0.3 0.1-0.1 0-0.2 0.2-0.2 0.1-0.2 0.2-0.1 0.2-0.1 0.4v8.6q0 0.1 0.1 0.3 0 0.2 0.2 0.3 0.1 0.1 0.2 0.2 0.2 0 0.3 0h58.8q0.2 0 0.4 0 0.1-0.1 0.2-0.2 0.2-0.1 0.2-0.3 0.1-0.2 0.1-0.3zm0.2 11.6q0-0.1-0.1-0.3 0-0.1-0.1-0.2-0.1-0.1-0.2-0.1-0.1-0.1-0.3-0.1h-59.4q-0.1 0-0.2 0.1-0.1 0-0.2 0.1-0.1 0.1-0.2 0.2 0 0.2 0 0.3v6.6q0 0.2 0 0.3 0.1 0.1 0.2 0.2 0.1 0.1 0.2 0.1 0.1 0.1 0.2 0.1h59.4q0.2 0 0.3-0.1 0.1 0 0.2-0.1 0.1-0.1 0.1-0.2 0.1-0.1 0.1-0.3zm-0.2 9.2q0 0 0-0.1-0.1-0.1-0.1-0.2-0.1-0.1-0.2-0.1-0.1 0-0.2 0h-59.5q-0.1 0-0.1 0-0.1 0-0.2 0.1-0.1 0.1-0.1 0.2 0 0.1 0 0.1v7.4q0 0.1 0 0.2 0 0.1 0.1 0.2 0.1 0 0.2 0.1 0 0 0.1 0h59.5q0.1 0 0.2 0 0.1-0.1 0.2-0.1 0-0.1 0.1-0.2 0-0.1 0-0.2zm289 11.4q0-0.1-0.1-0.2 0-0.1-0.1-0.2-0.1-0.1-0.2-0.2-0.1 0-0.3 0h-16q-0.2 0-0.3 0-0.1 0-0.2 0.1-0.1 0.1-0.1 0.2-0.1 0.1-0.1 0.3v8.5q0 0.2 0.1 0.3 0 0.1 0.1 0.2 0.1 0.1 0.2 0.1 0.1 0.1 0.2 0.1h16.1q0.1 0 0.3-0.1 0.1 0 0.2-0.1 0.1-0.1 0.1-0.2 0-0.1 0-0.2zm64.9 13.7q0-0.2 0-0.5-0.1-0.2-0.3-0.4-0.2-0.2-0.4-0.3-0.3-0.1-0.5-0.1h-627.5q-0.2 0-0.4 0.1-0.3 0.1-0.5 0.3-0.1 0.2-0.2 0.4-0.1 0.3-0.1 0.5v5.5q0 0.3 0.1 0.5 0.1 0.2 0.2 0.4 0.2 0.2 0.5 0.3 0.2 0.1 0.4 0.1h627.5q0.2 0 0.5-0.1 0.2-0.1 0.4-0.3 0.2-0.2 0.3-0.4 0-0.2 0-0.5z"/>
	<path class="s5" d="m619.7 422.7l-0.6-0.1q-0.5-0.1-0.7 0.5c-0.3 0.7-0.9 1.3-1.7 1.5q-5.3 1.1-10.9 1.6 0 0-0.1 0 0 0 0 0.1-0.1 0-0.1 0 0 0.1 0 0.1v0.4q0 0.4 0.4 0.4h12q0.2 0 0.2 0.2v0.4q0 0.1 0 0.1c-2.8 0.2-6.1 0.4-9.2 0.3q-6.7-0.3-13.5 0.4c-1.2 0.1-2.1 0.6-3.6 1-7.7 2.3-14.6 3.4-22.4 5.6-4.3 1.2-10.6 2.5-11.4 3.3q-0.1 0.1-0.1 0.2 0 0.1 0 0.2 0.1 0.1 0.2 0.2 0.1 0.1 0.2 0.1l61.3-0.1 0.1 1.2q-36.2-0.4-72.3 0.2-1.9 0-2.5 0.3-4.7 1.9-10 3.2-9.7 2.5-26.1 7c-1.6 0.5-3 0.3-4.5 0.6q-0.2 0.1-0.2 0.3v0.4q0 0.1 0 0.2 0.1 0.1 0.1 0.1 0.1 0.1 0.2 0.1 0.1 0.1 0.2 0.1l115 0.2 0.1 0.9q-4.8 0-9.6 0-41.7-0.1-91.7 0.2-1 0-14.1-0.3c-4.1-0.1-7.7 0.2-11.6 0.6-1.9 0.2-3.2 1.1-4.7 1.5q-7.2 1.8-12.1 3.2c-9.3 2.5-19 4.5-28.9 7.3-2.5 0.7-4.9 0.8-7.4 1.3q-0.1 0-0.1 0-0.1 0-0.1 0.1 0 0 0 0.1-0.1 0-0.1 0.1v0.3q0 0.3 0.3 0.3 22.9-0.1 43.6 0.1 13.1 0.2 20 0.2c35.5-0.2 69 0.1 111.2-0.4q2.5 0 5.3-0.2l0.1 38.2-0.2-6.2q0-0.2-0.1-0.4 0-0.1-0.2-0.3-0.1-0.1-0.3-0.2-0.2-0.1-0.4-0.1-123-0.1-138.8-0.2-1.1-0.1-1.5-0.1-2.6-0.4-0.2-0.5 17.3-0.3 28.3-0.3 56.4-0.1 112.8-0.1 0.1 0 0.1 0 0 0 0.1-0.1 0 0 0 0 0-0.1 0-0.1v-13.8q0-0.2 0-0.3-0.1-0.1-0.2-0.2-0.1-0.1-0.2-0.1-0.1-0.1-0.2-0.1-12-0.1-37.9-0.2-16 0-202.4-0.1-0.9 0-3.3 0.3-1.4 0.2-3.1 0.8-4.9 1.7-9.9 2.9-34.1 8.4-35.7 8.7-3.3 0.6-5.3 1.3-1.1 0.4 0 0.7 0.7 0.2 1.9 0.2c11.7-0.1 25-0.2 38 0.1q14 0.3 25 0.1 5.2-0.1 77.5 0.3 0.2 0 0.2 0.2 0 0.2-0.2 0.2-74.2 0.4-148.4 0.2-3.3 0-5.4 0.6-11 3.5-21.4 4.7l-0.1-7.8q0.1-0.1 0.1-0.2 0-0.1 0.1-0.2 0 0 0.1-0.1 0.1 0 0.2-0.1l329.9-80.6q0.2-0.1 0.3 0 0.1 0 0.2 0.1 0.1 0.1 0.2 0.2 0 0.1 0 0.2zm-235.5 59.4q0 0 0 0.1 0 0 0 0 0 0 0 0 0.1 0 0.1 0l235-0.1q0.1 0 0.2 0 0 0 0.1-0.1 0-0.1 0.1-0.1 0-0.1 0-0.2v-11.2q0-0.1 0-0.2-0.1-0.1-0.2-0.1 0-0.1-0.1-0.1-0.1-0.1-0.2-0.1-85.6-0.2-171.2-0.1c-4.9 0-12.8-0.6-18.9 0.3q-0.5 0.1-0.9 0.3-1.1 0.8-2.4 1.1-4.2 0.8-6.6 1.4-21.6 5.3-29.1 7.3c-2 0.5-4.1 0.6-6.2 1q-0.5 0.1-0.2 0.4z"/>
	<path class="s6" d="m619.7 422.7v16.4l-61.3 0.1q-0.1 0-0.2-0.1-0.1-0.1-0.2-0.2 0-0.1 0-0.2 0-0.1 0.1-0.2c0.8-0.8 7.1-2.1 11.3-3.3 7.9-2.2 14.8-3.3 22.5-5.6 1.5-0.4 2.4-0.9 3.6-1q6.8-0.7 13.5-0.4c3.1 0.1 6.4-0.1 9.2-0.3q0 0 0-0.1v-0.4q0-0.2-0.2-0.2h-12q-0.4 0-0.4-0.4v-0.4q0 0 0-0.1 0 0 0.1 0 0-0.1 0-0.1 0.1 0 0.1 0 5.6-0.5 10.9-1.6c0.8-0.2 1.4-0.8 1.7-1.5q0.2-0.6 0.7-0.5z"/>
	<path class="s6" d="m619.8 440.3l-0.1 12.7-115-0.2q-0.1 0-0.2-0.1-0.1 0-0.2-0.1 0 0-0.1-0.1 0-0.1 0-0.2v-0.4q0-0.2 0.2-0.3c1.5-0.3 2.9-0.1 4.5-0.6q16.4-4.5 26.1-7 5.3-1.3 10-3.2 0.6-0.3 2.5-0.3 36.1-0.6 72.3-0.2z"/>
	<path class="s6" d="m619.8 453.9l0.1 14.4q-2.9 0.2-5.4 0.2c-42.2 0.5-75.7 0.2-111.2 0.4q-6.9 0-20-0.2-20.7-0.2-43.6-0.1-0.3 0-0.3-0.3v-0.3q0-0.1 0.1-0.1 0-0.1 0-0.1 0-0.1 0.1-0.1 0 0 0.1 0c2.5-0.5 4.9-0.6 7.5-1.3 9.8-2.8 19.5-4.8 28.8-7.3q4.9-1.4 12.1-3.2c1.5-0.4 2.8-1.3 4.7-1.5 3.9-0.4 7.5-0.7 11.6-0.6q13.1 0.3 14.1 0.3 50-0.3 91.8-0.2 4.7 0 9.5 0z"/>
	<path class="s6" d="m383.9 481.3c2.1-0.5 4.2-0.5 6.2-1.1q7.5-1.9 29.1-7.3 2.4-0.5 6.6-1.4 1.3-0.2 2.4-1 0.4-0.2 0.9-0.3c6.1-0.9 14-0.3 18.9-0.3q85.6-0.1 171.2 0.1 0.1 0 0.2 0 0.1 0.1 0.1 0.2 0.1 0 0.1 0.1 0.1 0.1 0.1 0.2v11.2q0 0.1 0 0.2-0.1 0-0.1 0.1-0.1 0-0.2 0.1 0 0-0.1 0h-235q-0.1 0.1-0.1 0 0 0 0 0 0 0 0 0 0 0 0 0l-0.5-0.4q-0.3-0.3 0.2-0.4z"/>
	<path class="s6" d="m619.9 506.5l-0.2 7.5-46.2 0.1h-222.7l-61.2 0.1q-0.3 0-0.3 0.3v0.4q0 0.3 0.3 0.3l61.2 0.1v62.1l-60.9-0.3q-0.5 0-0.5 0.4v0.5q0 0.1 0.1 0.1 0 0.1 0.1 0.2 0 0 0.1 0 0.1 0.1 0.1 0.1h60.9v14.3l-60.7-0.1q-0.1 0-0.1 0.1 0 0-0.1 0 0 0 0 0-0.1 0.1-0.1 0.1l-0.2 0.3q-0.1 0.1-0.1 0.3-0.1 0.2 0 0.3 0.1 0.1 0.2 0.2 0.2 0.1 0.3 0.1h60.9v59.9h-62.4l0.1-107.4h60.7q0.5 0 0.5-0.5v-0.3q0 0 0-0.1 0-0.1-0.1-0.2-0.1 0-0.1 0-0.1-0.1-0.2-0.1h-60.8v-40.9q10.4-1.2 21.4-4.7 2.1-0.6 5.4-0.6 74.2 0.2 148.4-0.2 0.2 0 0.2-0.2 0-0.2-0.2-0.2-72.3-0.4-77.4-0.3-11.1 0.2-25-0.1c-13.1-0.3-26.4-0.2-38-0.1q-1.3 0-1.9-0.2-1.2-0.3-0.1-0.7 2-0.7 5.3-1.3 1.6-0.3 35.7-8.7 5-1.2 9.9-2.9 1.7-0.6 3.1-0.8 2.4-0.3 3.3-0.3 186.4 0.1 202.4 0.1 25.9 0.1 37.9 0.2 0.1 0 0.2 0.1 0.1 0 0.2 0.1 0.1 0.1 0.2 0.2 0 0.1 0 0.3v13.8q0 0 0 0.1 0 0 0 0-0.1 0.1-0.1 0.1 0 0-0.1 0-56.4 0-112.8 0.1-11 0-28.3 0.3-2.4 0.1 0.2 0.5 0.4 0 1.5 0.1 15.8 0.1 138.8 0.2 0.2 0 0.4 0.1 0.2 0.1 0.3 0.2 0.2 0.2 0.2 0.3 0.1 0.2 0.1 0.4zm-270.2 24.1q0-0.1 0-0.1-0.1-0.1-0.1-0.1 0 0-0.1 0 0-0.1-0.1-0.1h-59.8q0 0-0.1 0.1 0 0-0.1 0 0 0 0 0.1-0.1 0-0.1 0.1v0.3q0 0 0.1 0.1 0 0 0 0.1 0.1 0 0.1 0 0.1 0 0.1 0.1h59.8q0.1-0.1 0.1-0.1 0.1 0 0.1 0 0-0.1 0.1-0.1 0-0.1 0-0.1zm0.4 31.9q0-0.1 0-0.2-0.1 0-0.1-0.1-0.1-0.1-0.2-0.1-0.1 0-0.1 0l-60-0.2q-0.1 0-0.2 0.1-0.1 0-0.2 0.1 0 0.1-0.1 0.1 0 0.1 0 0.2 0 0.1 0 0.2 0.1 0.1 0.1 0.2 0.1 0 0.2 0.1 0.1 0 0.1 0l60 0.1q0.1 0 0.2 0 0.1-0.1 0.2-0.1 0-0.1 0.1-0.2 0-0.1 0-0.2zm-0.6 44.7q0-0.1 0-0.3-0.1-0.1-0.2-0.2-0.1-0.1-0.2-0.1-0.1-0.1-0.3-0.1l-58.9-0.1q-0.2 0-0.3 0.1-0.1 0-0.2 0.1-0.1 0.1-0.2 0.2 0 0.2 0 0.3 0 0.2 0 0.3 0.1 0.1 0.2 0.2 0.1 0.1 0.2 0.2 0.1 0 0.3 0l58.9 0.1q0.2 0 0.3 0 0.1-0.1 0.2-0.2 0.1-0.1 0.2-0.2 0-0.1 0-0.3zm0 16.3q0-0.1 0-0.2 0-0.1-0.1-0.2-0.1-0.1-0.2-0.2-0.1 0-0.3 0l-58.9-0.1q-0.1 0-0.2 0-0.1 0.1-0.2 0.2-0.1 0.1-0.1 0.2-0.1 0.1-0.1 0.2v0.1q0 0.1 0.1 0.2 0 0.1 0.1 0.2 0.1 0.1 0.2 0.1 0.1 0.1 0.2 0.1l58.9 0.1q0.2 0 0.3-0.1 0.1 0 0.2-0.1 0.1-0.1 0.1-0.2 0-0.1 0-0.2zm0 15.9q0-0.1 0-0.2-0.1-0.1-0.1-0.2-0.1-0.1-0.2-0.1-0.1 0-0.3-0.1h-59.2q-0.1 0.1-0.2 0.1-0.1 0-0.2 0.1-0.1 0.1-0.1 0.2-0.1 0.1-0.1 0.2v0.1q0 0.1 0.1 0.2 0 0.1 0.1 0.2 0.1 0.1 0.2 0.1 0.1 0.1 0.2 0.1h59.2q0.2 0 0.3-0.1 0.1 0 0.2-0.1 0-0.1 0.1-0.2 0-0.1 0-0.2z"/>
	<path class="s5" d="m619.7 514l0.1 2.3-0.5-0.7q-0.2-0.4-0.8-0.4l-44.9-0.1-0.1-1z"/>
	<path class="s5" d="m350.8 514.1q0.3 0.8 0 1.2l-61.2-0.1q-0.3 0-0.3-0.3v-0.4q0-0.3 0.3-0.3z"/>
	<path class="s6" d="m619.8 516.3v13.9l-45.2 0.3q-0.3 0-0.3 0.3v0.4q0 0.1 0.1 0.1 34.1 0 44.4 0.1 0.4 0 1 0.6v12.9l-45.1 0.3q-0.6 0-0.6 0.6v0.3q0 0.2 0.3 0.2 18.8 0.7 32.6 0.1 7.6-0.2 12.9 0.9l-0.1 14.6-45.4-0.1q-0.1 0-0.1 0-0.1 0.1-0.1 0.1 0 0.1-0.1 0.1 0 0.1 0 0.1v0.4q0 0.2 0.2 0.2l45.5 0.3-0.1 14.2h-21.2q-0.3 0-0.3 0.3v0.4q0 0.2 0.3 0.2h21.3l0.1 10.6-0.2 3.4q0 0.6-0.5 0.6l-45.8-0.2 0.2-77.3h44.9q0.6 0 0.8 0.4zm-22.2 55.4q0-0.1 0-0.2-0.1-0.1-0.1-0.2-0.1 0-0.2-0.1-0.1 0-0.2 0l-7.8-0.1q-0.1 0-0.2 0.1-0.1 0-0.2 0.1 0 0.1-0.1 0.2 0 0.1 0 0.2l-0.1 11.3q0 0.1 0 0.2 0.1 0.1 0.2 0.2 0 0.1 0.1 0.1 0.1 0 0.2 0l7.8 0.1q0.1 0 0.2-0.1 0.1 0 0.2-0.1 0.1 0 0.1-0.1 0-0.1 0.1-0.2zm-9.8 5.9q0-0.1 0-0.2 0-0.1-0.1-0.2-0.1 0-0.2-0.1 0 0-0.1 0l-12.8-0.1q-0.1 0-0.2 0.1-0.1 0-0.2 0.1 0 0-0.1 0.1 0 0.1 0 0.2v0.1q0 0.1 0 0.1 0.1 0.1 0.1 0.2 0.1 0.1 0.2 0.1 0.1 0 0.2 0l12.7 0.1q0.1 0 0.2 0 0.1-0.1 0.2-0.1 0.1-0.1 0.1-0.2 0-0.1 0-0.2z"/>
	<path class="s5" d="m419.8 620.7v-101.1q0-0.1 0.1-0.2 0-0.2 0.1-0.3 0.1-0.1 0.3-0.1 0.1-0.1 0.2-0.1h79.9q0.2 0 0.3 0.1 0.1 0 0.2 0.1 0.1 0.1 0.2 0.3 0 0.1 0 0.2v132.5q0 0.1 0 0.3-0.1 0.1-0.2 0.2-0.1 0.1-0.2 0.2-0.1 0-0.3 0h-17.5q-0.2 0-0.3 0-0.1-0.1-0.2-0.2-0.1-0.1-0.2-0.2 0-0.2 0-0.3v-29.9q0-0.2-0.1-0.3-0.1-0.1-0.2-0.2-0.1-0.1-0.2-0.2-0.1-0.1-0.3-0.1h-60.9q-0.1 0-0.2 0-0.2-0.1-0.3-0.2-0.1-0.1-0.1-0.2-0.1-0.1-0.1-0.3z"/>
	<path fill-rule="evenodd" class="s5" d="m358.4 519h55.1c0.4 0 0.7 0.4 0.7 0.8v132.1c0 0.4-0.3 0.7-0.7 0.7h-55.1c-0.4 0-0.7-0.3-0.7-0.7v-132.2c0-0.3 0.3-0.7 0.7-0.7z"/>
	<path class="s5" d="m517 528.5h41.6q0.1 0 0.2 0 0.1 0 0.2 0.1 0.1 0.1 0.1 0.2 0.1 0.1 0.1 0.2v125.4q0 0.1-0.1 0.2 0 0.1-0.1 0.2-0.1 0.1-0.2 0.1-0.1 0-0.2 0h-41.6q-0.1 0-0.2 0-0.1 0-0.2-0.1 0-0.1-0.1-0.2 0-0.1 0-0.2v-39.6q0-0.1 0-0.2 0.1-0.1 0.1-0.1 0.1-0.1 0.2-0.1 0.1-0.1 0.2-0.1h2.9q0.1 0 0.2 0 0.1-0.1 0.2-0.1 0-0.1 0.1-0.2 0-0.1 0-0.2v-12.1q0-0.1 0-0.2-0.1-0.1-0.1-0.2-0.1 0-0.2-0.1-0.1 0-0.2 0h-2.9q-0.1 0-0.2-0.1-0.1 0-0.1-0.1-0.1 0-0.2-0.1 0-0.1 0-0.2v-71.7q0-0.1 0-0.2 0.1-0.1 0.2-0.2 0-0.1 0.1-0.1 0.1 0 0.2 0z"/>
	<path class="s5" d="m619.8 530.2q0.1 0.5 0 1.8-0.6-0.6-1-0.7-10.3-0.1-44.4 0-0.1 0-0.1-0.1v-0.4q0-0.3 0.3-0.3z"/>
	<path fill-rule="evenodd" class="s5" d="m289.6 530.4h59.8c0.1 0 0.2 0.1 0.2 0.2v0.3c0 0.2-0.1 0.3-0.2 0.3h-59.8c-0.2 0-0.3-0.1-0.3-0.3v-0.3c0-0.1 0.1-0.2 0.3-0.2z"/>
	<path class="s5" d="m619.8 544.9l0.1 2.4q-5.3-1.1-12.9-0.9-13.8 0.6-32.6-0.1-0.3 0-0.3-0.2v-0.3q0-0.6 0.6-0.6z"/>
	<path class="s5" d="m288.5 546.5q-0.2-0.6 0-1.2h60.8q0.1 0 0.2 0.1 0 0 0.1 0 0.1 0.1 0.1 0.2 0 0.1 0 0.1v0.3q0 0.5-0.5 0.5z"/>
	<path class="s5" d="m619.8 561.9v1.1l-45.5-0.3q-0.2 0-0.2-0.2v-0.4q0 0 0-0.1 0.1 0 0.1-0.1 0 0 0.1-0.1 0 0 0.1 0z"/>
	<path fill-rule="evenodd" class="s5" d="m289.6 562l60 0.1c0.3 0 0.5 0.2 0.5 0.5 0 0.3-0.2 0.5-0.5 0.5l-60-0.1c-0.3 0-0.5-0.2-0.5-0.5 0-0.3 0.2-0.5 0.5-0.5z"/>
	<path fill-rule="evenodd" class="s4" d="m589.3 571.1l7.7 0.1c0.3 0 0.6 0.2 0.6 0.5l-0.1 11.3c0 0.3-0.2 0.6-0.5 0.6l-7.8-0.1c-0.3 0-0.5-0.2-0.5-0.5v-11.3c0-0.3 0.3-0.6 0.6-0.6z"/>
	<path class="s5" d="m350.8 577.4q0.1 0.2-0.1 1h-60.9q0 0-0.1-0.1-0.1 0-0.1 0-0.1-0.1-0.1-0.2-0.1 0-0.1-0.1v-0.5q0-0.4 0.5-0.4z"/>
	<path fill-rule="evenodd" class="s5" d="m574.6 577.1h12.8c0.2 0 0.5 0.3 0.5 0.5l-0.1 0.1c0 0.2-0.2 0.5-0.4 0.5l-12.8-0.1c-0.3 0-0.5-0.2-0.5-0.5 0-0.3 0.2-0.5 0.5-0.5z"/>
	<path class="s5" d="m619.7 577.2q0.3 0.5 0.1 0.9h-21.3q-0.3 0-0.3-0.3v-0.3q0-0.3 0.3-0.3z"/>
	<path class="s5" d="m619.9 608.1l-45.9-0.2q-0.5 0-0.5 0.5l-0.1 0.9v-3l46.1 0.2q0 0 0.1 0 0.1-0.1 0.1-0.1 0.1-0.1 0.1-0.1 0-0.1 0-0.1v-11.5q0-0.1-0.1-0.3 0-0.1-0.1-0.2-0.1-0.1-0.2-0.1-0.2-0.1-0.3-0.1l-45.7-0.1v-1.4l45.8 0.1q0.5 0 0.5-0.5l0.2-3.4z"/>
	<path class="s5" d="m350.7 592.7l0.1 1.3h-60.9q-0.1 0-0.3-0.1-0.1-0.1-0.2-0.2-0.1-0.1 0-0.3 0-0.2 0.1-0.3l0.2-0.3q0 0 0.1-0.1 0 0 0 0 0.1 0 0.1 0 0-0.1 0.1 0z"/>
	<path class="s6" d="m573.4 606.3v-12.4l45.7 0.1q0.1 0 0.3 0.1 0.1 0 0.2 0.1 0.1 0.1 0.1 0.2 0.1 0.2 0.1 0.3v11.5q0 0 0 0.1 0 0-0.1 0.1 0 0-0.1 0.1-0.1 0-0.1 0z"/>
	<path fill-rule="evenodd" class="s5" d="m512.8 605.5l4.7-0.1c0.4-0.1 0.8 0.2 0.8 0.6l0.1 5.2c0 0.4-0.3 0.7-0.7 0.7l-4.7 0.1c-0.4 0.1-0.7-0.2-0.7-0.6l-0.2-5.2c0-0.4 0.3-0.7 0.7-0.7z"/>
	<path fill-rule="evenodd" class="s5" d="m289.8 606.4l59 0.1c0.4 0 0.7 0.4 0.7 0.8 0 0.4-0.3 0.7-0.7 0.7l-59-0.1c-0.4 0-0.7-0.3-0.7-0.7v-0.1c0-0.3 0.3-0.7 0.7-0.7z"/>
	<path class="s6" d="m619.9 608.1l-0.1 14.8-46.5-0.2 0.1-13.4 0.1-0.9q0-0.5 0.5-0.5z"/>
	<path class="s5" d="m619.8 622.9v1.3q-23.1 0.1-46 0.1-0.4 0-0.4 1-0.3-2.1-0.1-2.6z"/>
	<path fill-rule="evenodd" class="s5" d="m290 622.8l58.9 0.1c0.3 0 0.6 0.3 0.6 0.6v0.1c0 0.3-0.3 0.6-0.6 0.6l-58.9-0.1c-0.4 0-0.6-0.3-0.6-0.6v-0.1c0-0.3 0.2-0.6 0.6-0.6z"/>
	<path fill-rule="evenodd" class="s5" d="m420.5 623.1h58.8c0.5 0 0.9 0.4 0.9 0.9v8.6c0 0.5-0.4 0.8-0.9 0.8h-58.8c-0.4 0-0.8-0.3-0.8-0.8v-8.6c0-0.5 0.4-0.9 0.8-0.9z"/>
	<path class="s6" d="m619.8 624.2v14.8l-46.4-0.1v-13.6q0-1 0.4-1 22.9 0 46-0.1z"/>
	<path fill-rule="evenodd" class="s5" d="m420.3 635h59.4c0.4 0 0.7 0.2 0.7 0.6v6.6c0 0.4-0.3 0.7-0.7 0.7h-59.4c-0.3 0-0.6-0.3-0.6-0.7v-6.6c0-0.4 0.3-0.6 0.6-0.6z"/>
	<path fill-rule="evenodd" class="s5" d="m289.7 638.9h59.2c0.3 0 0.6 0.3 0.6 0.6v0.1c0 0.3-0.3 0.6-0.6 0.6h-59.2c-0.3 0-0.6-0.3-0.6-0.6v-0.1c0-0.3 0.3-0.6 0.6-0.6z"/>
	<path class="s5" d="m619.8 639q-0.1 0.5 0 1.1-22.8 0.1-45.5-0.1-0.6 0-0.8 0.3-0.2 0.4-0.1 1v-2.4z"/>
	<path class="s6" d="m619.8 640.1v13.8h-46.3l-0.1-12.6q-0.1-0.6 0.1-1 0.2-0.3 0.8-0.3 22.7 0.2 45.5 0.1z"/>
	<path fill-rule="evenodd" class="s5" d="m420.2 644.3h59.5c0.3 0 0.5 0.2 0.5 0.5v7.4c0 0.2-0.2 0.5-0.5 0.5h-59.5c-0.3 0-0.5-0.3-0.5-0.5v-7.4c0-0.3 0.2-0.5 0.5-0.5z"/>
	<path class="s5" d="m350.8 653.9l-0.1 1.3h-62.2l-0.1-1.3z"/>
	<path class="s5" d="m619.8 653.9q0.1 0.7 0 1.3-21.9 0-43.8 0.1-2.9 0-2.6-1.1 0-0.1 0.1-0.3z"/>
	<path class="s6" d="m573.4 654.2q-0.3 1.1 2.6 1.1 21.9-0.1 43.8-0.1v9.7q0 0.5-0.5 0.5h-45.3q-0.6 0-0.6-0.6z"/>
	<path class="s6" d="m350.7 655.2l0.2 4.2q0 0.5 0.5 0.5h149.1q0.8 0 0.8 0.8v4q0 0.7-0.7 0.7h-211.5q-0.7 0-0.7-0.6l0.1-9.6z"/>
	<path fill-rule="evenodd" class="s7" d="m752.4 655.5h16.1c0.4 0 0.6 0.3 0.6 0.7v8.5c0 0.4-0.3 0.6-0.6 0.6h-16.1c-0.3 0-0.6-0.3-0.6-0.6v-8.6c0-0.3 0.3-0.6 0.6-0.6z"/>
	<path fill-rule="evenodd" class="s6" d="m205.3 668.6h627.5c0.7 0 1.2 0.6 1.2 1.3v5.5c0 0.7-0.5 1.3-1.2 1.3h-627.5c-0.7 0-1.2-0.6-1.2-1.3v-5.5c0-0.7 0.5-1.3 1.2-1.3z"/>
</svg>