<svg xmlns="http://www.w3.org/2000/svg" enable-background="new 0 0 512 512" viewBox="0 0 512 512" id="utensils">
  <path fill="#231f20" d="M224.4677734 47.6960449c-2.7617188 0-5 2.2387695-5 5v105.4467773c0 17.5498047-11.2670898 32.510498-26.9448242 38.0491943-.0534668.020752-.1105957.0328369-.1630859.0552979-2.8232422.9837646-5.7851563 1.6662598-8.8520508 1.9995117V52.6960449c0-2.7612305-2.2382813-5-5-5s-5 2.2387695-5 5V198.246582c-3.0673828-.333252-6.0297852-1.0161133-8.8532715-2-.0463867-.0198975-.0969238-.0302734-.1437988-.0488281-15.6865234-5.5338135-26.9619141-20.4987793-26.9619141-38.0549316V52.6960449c0-2.7612305-2.2382813-5-5-5s-5 2.2387695-5 5v105.4467773c0 20.5771484 12.4140625 38.3000488 30.1416016 46.1003418v90.5114746c-10.53125 6.7412109-17.5322266 18.5344238-17.5322266 31.9399414v99.7041016c0 20.9013672 17.0039063 37.9052734 37.9052734 37.9052734h.8896484c20.9013672 0 37.9052734-17.0039063 37.9052734-37.9052734v-99.7041016c0-13.4055176-7.0009766-25.1987305-17.5322266-31.9399414v-90.5114746c17.7275391-7.800293 30.1416016-25.5231934 30.1416016-46.1003418V52.6960449C229.4677734 49.9348145 227.2294922 47.6960449 224.4677734 47.6960449zM167.6904297 207.4482422c3.2966309.6813965 6.7094727 1.0412598 10.2050781 1.0412598h1.2255859c3.4956055 0 6.9084473-.3598633 10.2050781-1.0412598v82.7957764c-3.2993164-.9403076-6.776123-1.4547119-10.3730469-1.4547119h-.8896484c-3.5969238 0-7.0737305.5144043-10.3730469 1.4547119V207.4482422zM206.8583984 326.6945801v99.7041016c0 15.3867188-12.5185547 27.9052734-27.9052734 27.9052734h-.8896484c-15.3867188 0-27.9052734-12.5185547-27.9052734-27.9052734v-99.7041016c0-15.3867188 12.5185547-27.9052734 27.9052734-27.9052734h.8896484c4.770752 0 9.2646484 1.2055664 13.1962891 3.3248291.0612793.0299072.1164551.0698242.1791992.09729C200.9794922 306.956543 206.8583984 316.1513672 206.8583984 326.6945801zM372.4804688 299.0876465V52.6960449c0-1.5205078-.6914063-2.9580078-1.8798828-3.9067383-1.1875-.9482422-2.7412109-1.3051758-4.2255859-.9697266-2.7822266.6308594-68.1533203 17.8212891-68.1533203 224.4355469 0 2.7617188 2.2382813 5 5 5h19.6611328v19.1595459c-9.1831055 6.9237061-15.1318359 17.9190674-15.1318359 30.2799072v99.7041016c0 20.9013672 17.0039063 37.9052734 37.9052734 37.9052734h.8896484c20.9013672 0 37.9052734-17.0039063 37.9052734-37.9052734v-99.7041016C384.4511719 315.8193359 379.8410645 306.0063477 372.4804688 299.0876465zM308.234375 267.255127c.5283203-99.887207 16.8476563-151.6352539 30.5742188-177.5307617 8.9755859-16.9335938 17.9570313-25.1367188 23.671875-28.9804688v231.5695801c-4.8479004-2.2558594-10.2446289-3.5241699-15.9345703-3.5241699H345.65625c-4.4807129 0-8.7800293.786377-12.7734375 2.2202148V272.255127c0-2.7617188-2.2382813-5-5-5H308.234375zM374.4511719 426.3986816c0 15.3867188-12.5185547 27.9052734-27.9052734 27.9052734H345.65625c-15.3867188 0-27.9052734-12.5185547-27.9052734-27.9052734v-99.7041016c0-9.7897949 5.0720215-18.4124756 12.7216797-23.3945313.1079102-.0656738.2145996-.1298828.3168945-.2032471 4.3076172-2.7237549 9.4042969-4.3074951 14.8666992-4.3074951h.8896484c6.6940918 0 12.8439941 2.3712158 17.6577148 6.3154297.0517578.0455322.1057129.0883789.159668.1318359 6.1589355 5.1228027 10.0878906 12.8395996 10.0878906 21.4580078V426.3986816z"></path>
</svg>
